<?xml version="1.0" encoding="utf-8"?>
<!-- Generator: Adobe Illustrator 24.0.3, SVG Export Plug-In . SVG Version: 6.00 Build 0)  -->
<svg version="1.1" id="Layer_1" xmlns="http://www.w3.org/2000/svg" xmlns:xlink="http://www.w3.org/1999/xlink" x="0px" y="0px"
	 viewBox="0 0 2000 2000" style="enable-background:new 0 0 2000 2000;" xml:space="preserve">
<style type="text/css">
	.st0{fill:#FAAF5E;}
	.st1{fill:#683A32;}
	.st2{fill:#FFFFFF;}
	.st3{fill:#F78C8B;}
</style>
<g>
	<g>
		<path class="st0" d="M1152.98,722.69c0,0,192.7-164.5,277.91-128.8c70.5,55.96,13.54,421.23,13.54,421.23
			S1174.61,840.84,1152.98,722.69z"/>
		<path class="st1" d="M1444.43,1027.12c-2.28,0-4.54-0.65-6.51-1.92c-0.68-0.44-68.87-44.63-138.78-102.76
			c-95.33-79.27-148.48-145.74-157.97-197.59c-0.77-4.21,0.76-8.51,4.01-11.29c6.54-5.58,161.3-136.75,257.87-136.75
			c12.04,0,22.96,2.02,32.46,6c1.01,0.42,1.96,0.99,2.82,1.67c32.92,26.13,45.27,105.18,37.73,241.66
			c-5.4,97.78-19.65,189.9-19.79,190.82c-0.63,4.01-3.24,7.44-6.95,9.1C1447.77,1026.77,1446.1,1027.12,1444.43,1027.12z
			 M1166.29,727.23c11.9,44.94,62.91,105.83,148.2,176.75c48.91,40.66,96.88,74.35,120.79,90.6c4.39-31.66,12.96-99.32,16.85-169.92
			c8.87-160.99-12.81-207.23-27.47-220.34c-6.21-2.33-13.47-3.51-21.6-3.51C1324.79,600.82,1194.58,704.02,1166.29,727.23z"/>
	</g>
	<g>
		<path class="st0" d="M847.02,722.69c0,0-192.7-164.5-277.91-128.8c-70.5,55.96-13.54,421.23-13.54,421.23
			S825.39,840.84,847.02,722.69z"/>
		<path class="st1" d="M555.57,1027.12c-1.67,0-3.34-0.35-4.91-1.05c-3.71-1.66-6.32-5.09-6.95-9.1
			c-0.14-0.92-14.39-93.04-19.79-190.82c-7.53-136.48,4.81-215.53,37.73-241.66c0.86-0.68,1.81-1.24,2.82-1.67
			c9.51-3.98,20.43-6,32.46-6c96.57,0,251.33,131.16,257.87,136.75c3.25,2.78,4.78,7.08,4.01,11.29
			c-9.49,51.84-62.64,118.32-157.97,197.59c-69.91,58.13-138.1,102.32-138.78,102.76C560.11,1026.47,557.84,1027.12,555.57,1027.12z
			 M575.34,604.32c-14.66,13.11-36.34,59.35-27.47,220.34c3.89,70.6,12.46,138.25,16.85,169.92
			c23.95-16.27,72.04-50.04,120.97-90.74c85.18-70.85,136.13-131.69,148.02-176.6c-28.29-23.21-158.5-126.42-236.77-126.42
			C588.81,600.82,581.56,602,575.34,604.32z"/>
	</g>
	<g>
		<path class="st2" d="M1211.24,753.11c0,0,152.78-111.92,182.49-97.5c24.91,12.09,6.42,256.4-7,293.99L1211.24,753.11z"/>
	</g>
	<g>
		<path class="st2" d="M788.57,753.11c0,0-152.78-111.92-182.49-97.5c-24.91,12.09-6.42,256.4,7,293.99L788.57,753.11z"/>
	</g>
	<g>
		<path class="st0" d="M1467.58,1336.01c0,0,90.38-259.57-40.88-365.48S1310.5,683.48,999,714.89
			c-311.5-31.41-296.43,149.74-427.69,255.64s-40.88,365.48-40.88,365.48H1467.58z"/>
		<path class="st1" d="M1467.58,1348.01H530.42c-5.11,0-9.65-3.23-11.33-8.05c-0.94-2.71-23.18-67.26-29.41-146.02
			c-3.7-46.68-0.93-88.59,8.23-124.58c11.7-45.95,33.86-82.34,65.86-108.16c37.4-30.18,63.03-67.48,87.82-103.55
			c26.79-38.98,54.49-79.3,96.44-109.01c47.54-33.67,105.95-49.35,183.81-49.35c20.87,0,43.46,1.19,67.16,3.55
			c23.69-2.35,46.28-3.55,67.16-3.55c77.85,0,136.26,15.68,183.8,49.35c41.95,29.71,69.66,70.03,96.45,109.01
			c24.79,36.07,50.43,73.37,87.82,103.55c32,25.82,54.16,62.21,65.86,108.16c9.16,35.98,11.93,77.9,8.23,124.58
			c-6.24,78.77-28.47,143.31-29.41,146.02C1477.23,1344.78,1472.68,1348.01,1467.58,1348.01z M539.16,1324.01h919.68
			c6.04-19.55,20.89-72.33,25.6-132.46c5.34-68.24-1.65-160.35-65.28-211.68c-40.12-32.37-66.77-71.14-92.53-108.63
			c-54.56-79.39-101.69-147.96-260.47-147.96c-20.43,0-42.62,1.19-65.95,3.55c-0.8,0.08-1.61,0.08-2.41,0
			c-23.34-2.35-45.53-3.55-65.95-3.55c-158.81,0-205.92,68.56-260.47,147.95c-25.76,37.49-52.4,76.26-92.53,108.64
			c-63.74,51.42-70.66,143.76-65.24,212.17C518.36,1252.08,533.13,1304.54,539.16,1324.01z"/>
	</g>
	<g>
		<path class="st2" d="M1464.3,1336.01c0,0,35.05-266.33-368.72-315.75l-97.72-12.42l-97.72,12.42
			c-403.77,49.42-368.72,315.75-368.72,315.75"/>
	</g>
	<g>
		<g>
			<path class="st2" d="M1334.14,1333.27c0,0-68.38-186.2,33.49-174.85c0,0-17.61-57.81,29.56-68.78
				c47.17-10.97,62.1,23.11,62.1,23.11s12.73-48.32,56.7-39.21c43.97,9.11,34.34,52.41,34.34,52.41s103.38-80.15,86.18,206.61"/>
			<path class="st1" d="M1334.14,1345.27c-4.89,0-9.48-3.01-11.27-7.87c-0.45-1.24-11.21-30.73-17.94-66.01
				c-9.47-49.63-6.11-85.2,9.97-105.71c6.67-8.51,18.42-17.89,38.2-19.51c-1.39-12.25-1.19-29.55,7.19-44.07
				c7.17-12.42,18.67-20.55,34.18-24.16c28.94-6.73,49.31,1.41,61.9,12.06c1.55-2.54,3.33-5.16,5.38-7.75
				c14.16-17.85,34.29-25.12,56.67-20.48c16.32,3.38,28.51,11.14,36.21,23.07c4.61,7.14,6.87,14.78,7.87,21.65
				c10.93-3.54,25.22-5,39.63,2.61c17.86,9.43,30.9,30.57,38.77,62.84c9.19,37.67,11.73,91.95,7.57,161.32
				c-0.4,6.62-6.08,11.65-12.7,11.26c-6.62-0.4-11.66-6.08-11.26-12.7c4.01-66.83,1.7-118.63-6.87-153.96
				c-6.06-24.99-15.26-41.4-26.59-47.46c-15.49-8.29-33.25,4.93-33.43,5.06c-4,3.1-9.48,3.34-13.75,0.63
				c-4.27-2.71-6.36-7.82-5.26-12.76c0.01-0.07,2.95-14.65-4.22-25.59c-4.16-6.34-10.97-10.42-20.84-12.46
				c-13.41-2.78-24.08,0.95-32.6,11.4c-7.19,8.81-10.04,19.06-10.07,19.16c-1.31,4.99-5.61,8.69-10.76,9.03
				c-5.14,0.35-9.84-2.52-11.8-7.27c-1.38-2.89-13.01-24.52-48.41-16.29c-8.91,2.07-15.07,6.25-18.83,12.78
				c-9.17,15.9-2.04,40.58-1.97,40.82c1.18,3.86,0.33,8.06-2.25,11.16c-2.58,3.11-6.54,4.71-10.56,4.26
				c-15.2-1.69-25.83,1.63-32.51,10.15c-11.29,14.4-13.16,45.08-5.28,86.41c6.36,33.37,16.79,61.94,16.89,62.23
				c2.28,6.22-0.91,13.12-7.13,15.4C1336.92,1345.04,1335.52,1345.27,1334.14,1345.27z"/>
		</g>
		<g>
			
				<ellipse transform="matrix(0.2298 -0.9732 0.9732 0.2298 -126.6215 2257.3428)" class="st3" cx="1362.83" cy="1208.67" rx="23.58" ry="23.58"/>
		</g>
		<g>
			
				<ellipse transform="matrix(0.1602 -0.9871 0.9871 0.1602 67.7633 2351.7585)" class="st3" cx="1415.96" cy="1136.06" rx="23.58" ry="23.58"/>
		</g>
		<g>
			
				<ellipse transform="matrix(0.7071 -0.7071 0.7071 0.7071 -352.501 1393.0085)" class="st3" cx="1505.26" cy="1122.01" rx="23.58" ry="23.58"/>
		</g>
		<g>
			
				<ellipse transform="matrix(0.2298 -0.9732 0.9732 0.2298 70.5087 2429.1528)" class="st3" cx="1569.94" cy="1170.03" rx="23.58" ry="23.58"/>
		</g>
		<g>
			<path class="st3" d="M1411.9,1250.67c-4.12-30.72,21.07-71.99,58.29-76.98c37.22-4.99,72.38,28.19,76.5,58.91
				c4.12,30.72-24.51,46.32-61.73,51.31C1447.75,1288.9,1416.02,1281.39,1411.9,1250.67z"/>
		</g>
	</g>
	<g>
		<path class="st1" d="M1224.85,1120.3c0,0,1.31,172.3-224.93,172.3h0.09c-226.24,0-224.93-172.3-224.93-172.3
			S978.38,1034.91,1224.85,1120.3z"/>
	</g>
	<g>
		<g>
			<path class="st2" d="M1224.93,1048.3c0,0-52.11-31.76-70.49-73.74s-41.94-110.89-155.51-110.89h2.14
				c-113.57,0-137.13,68.92-155.51,110.89c-18.38,41.98-70.49,73.74-70.49,73.74"/>
		</g>
		<g>
			<path class="st1" d="M1224.93,1048.3c-2.92-1.42-5.78-2.98-8.6-4.61c-2.82-1.62-5.62-3.3-8.38-5.04
				c-5.51-3.5-10.89-7.23-16.11-11.22c-5.24-3.97-10.26-8.24-15.13-12.74c-4.86-4.51-9.48-9.33-13.81-14.49
				c-4.32-5.17-8.29-10.71-11.79-16.67c-0.43-0.75-0.88-1.48-1.3-2.25l-1.21-2.31c-0.84-1.58-1.52-3.02-2.23-4.47l-4.25-8.72
				c-2.84-5.74-5.66-11.4-8.67-16.87c-3-5.48-6.23-10.74-9.62-15.81c-3.42-5.05-7.06-9.89-11.03-14.36
				c-3.98-4.47-8.18-8.66-12.69-12.48c-4.46-3.87-9.36-7.15-14.33-10.28l-3.79-2.25l-3.92-2.04c-1.29-0.71-2.64-1.31-3.98-1.92
				c-1.35-0.6-2.67-1.26-4.04-1.81c-2.77-1.06-5.48-2.23-8.33-3.12c-1.41-0.47-2.81-0.98-4.23-1.43l-4.31-1.23l-2.15-0.62
				c-0.72-0.19-1.46-0.34-2.19-0.52l-4.39-1.02c-2.94-0.64-5.94-1.11-8.9-1.68l-9.03-1.24c-3.04-0.28-6.07-0.63-9.12-0.86
				c-3.07-0.15-6.13-0.37-9.2-0.48l-9.25-0.14v-23.99l2.14-0.01c6.63-0.02,12.02,5.33,12.04,11.96c0.02,6.58-5.25,11.93-11.81,12.04
				l-0.23,0l-9.25,0.14c-3.07,0.12-6.13,0.33-9.2,0.48c-3.05,0.23-6.08,0.58-9.12,0.86c-3.02,0.37-6.01,0.86-9.03,1.25
				c-2.96,0.57-5.96,1.03-8.9,1.67l-4.39,1.02c-0.73,0.17-1.47,0.33-2.19,0.52l-2.15,0.62l-4.31,1.23
				c-1.42,0.45-2.82,0.96-4.23,1.43c-2.84,0.9-5.55,2.07-8.33,3.13c-1.38,0.55-2.69,1.21-4.04,1.81c-1.35,0.61-2.7,1.21-3.98,1.92
				l-3.92,2.04l-3.79,2.25c-4.97,3.12-9.86,6.42-14.33,10.28c-4.5,3.82-8.72,8-12.68,12.47c-3.97,4.47-7.62,9.3-11.03,14.36
				c-3.39,5.07-6.61,10.34-9.62,15.81c-3.01,5.47-5.82,11.12-8.67,16.87l-4.25,8.71l-1.08,2.2l-0.27,0.55l-0.07,0.14l-0.1,0.22
				l-0.04,0.07l-0.14,0.27l-0.56,1.07l-1.13,2.15c-0.4,0.73-0.88,1.54-1.32,2.3c-0.45,0.77-0.9,1.55-1.36,2.3l-1.39,2.17
				c-0.91,1.46-1.91,2.84-2.88,4.24c-1.97,2.78-4.04,5.45-6.2,8.04c-4.34,5.15-8.96,9.97-13.82,14.49
				c-4.87,4.5-9.9,8.77-15.13,12.74c-5.22,3.98-10.6,7.72-16.11,11.21c-2.77,1.73-5.56,3.41-8.39,5.03c-2.82,1.63-5.68,3.18-8.6,4.6
				c5.1-4.02,10.05-8.16,14.8-12.52c4.79-4.3,9.41-8.77,13.88-13.33c4.44-4.59,8.73-9.29,12.74-14.18
				c4.01-4.88,7.82-9.87,11.2-15.09c1.67-2.61,3.32-5.22,4.81-7.9c0.73-1.34,1.5-2.67,2.15-4.04l1.02-2.04
				c0.32-0.67,0.6-1.33,0.9-1.99c0.3-0.68,0.59-1.28,0.89-2.01l0.91-2.25l0.46-1.12l0.11-0.28l0.03-0.07
				c-0.13,0.28-0.02,0.04-0.04,0.08l0.05-0.14l0.21-0.56l0.85-2.25l3.43-9.09c2.3-6.11,4.79-12.24,7.54-18.34
				c2.75-6.09,5.75-12.17,9.2-18.05c3.44-5.89,7.23-11.66,11.49-17.15c4.28-5.47,9.03-10.64,14.13-15.46
				c5.09-4.85,10.69-9.17,16.54-13.08l4.44-2.86l4.58-2.62c1.51-0.9,3.09-1.68,4.66-2.46c1.57-0.77,3.13-1.61,4.72-2.32
				c3.21-1.38,6.39-2.89,9.69-4.01c1.64-0.59,3.27-1.22,4.92-1.78l4.97-1.54l2.49-0.77c0.83-0.24,1.67-0.44,2.51-0.66l5.02-1.28
				c3.35-0.81,6.73-1.42,10.1-2.13c3.38-0.54,6.77-1.06,10.15-1.51c3.39-0.34,6.78-0.75,10.16-1.03c3.38-0.2,6.77-0.46,10.15-0.61
				l10.12-0.23v24l-2.14-0.01l-0.31,0c-6.62-0.02-11.98-5.41-11.95-12.03c0.02-6.62,5.41-11.98,12.03-11.95c0.06,0,0.17,0,0.23,0
				l10.12,0.23c3.38,0.15,6.77,0.4,10.15,0.61c3.39,0.28,6.78,0.69,10.16,1.03c3.39,0.45,6.77,0.99,10.15,1.53
				c3.37,0.71,6.75,1.32,10.1,2.13l5.02,1.28c0.84,0.22,1.67,0.42,2.51,0.66l2.49,0.77l4.97,1.54c1.65,0.56,3.28,1.19,4.92,1.78
				c3.29,1.13,6.47,2.64,9.68,4.01c1.6,0.71,3.15,1.55,4.72,2.32c1.57,0.78,3.14,1.56,4.66,2.46l4.58,2.62l4.44,2.86
				c1.5,0.92,2.91,1.98,4.34,3.01c1.41,1.05,2.87,2.05,4.21,3.19l4.08,3.34l3.91,3.54c5.1,4.82,9.86,9.97,14.13,15.46
				c4.26,5.49,8.05,11.26,11.49,17.15c3.46,5.88,6.44,11.96,9.2,18.05c2.75,6.09,5.23,12.23,7.54,18.34
				c2.33,6.05,4.51,12.28,6.88,17.61c2.47,5.5,5.53,10.85,8.92,16.05c3.38,5.21,7.2,10.2,11.21,15.09
				c4.01,4.88,8.3,9.58,12.75,14.17c4.47,4.56,9.09,9.02,13.88,13.32C1214.88,1040.14,1219.84,1044.28,1224.93,1048.3z"/>
		</g>
	</g>
	<g>
		<path class="st1" d="M1099.86,935.85c0,34.98-44.71,102.33-99.86,102.33s-99.86-67.36-99.86-102.33
			c0-34.98,44.71-54.33,99.86-54.33S1099.86,900.87,1099.86,935.85z"/>
	</g>
	<g>
		<g>
			<path class="st2" d="M1242.93,1080.95c0,0-8.59,76.38-91.11,60.79c-85.89-16.23-61.89-62.19-152.89-62.52h0.97
				c-91,0.34-67,46.29-152.89,62.52c-82.52,15.59-91.11-60.79-91.11-60.79"/>
		</g>
		<g>
			<path class="st1" d="M1242.93,1080.95c-0.17,6.17-1.38,12.31-3.01,18.35c-1.75,6.01-4.09,11.94-7.3,17.5
				c-3.16,5.58-7.14,10.81-11.87,15.4c-4.73,4.6-10.28,8.46-16.28,11.43c-6.01,2.97-12.47,4.97-19.01,6.27l-4.93,0.8
				c-1.65,0.22-3.3,0.3-4.95,0.45l-2.48,0.2l-2.47,0.04c-1.65,0.02-3.3,0.06-4.95,0.05l-4.91-0.25l-2.46-0.13l-2.42-0.28l-4.86-0.58
				l-0.61-0.07l-0.15-0.02l-0.3-0.05l-0.28-0.05l-1.13-0.19l-2.27-0.37c-1.53-0.26-2.99-0.47-4.56-0.77l-4.81-0.99l-2.41-0.5
				l-2.35-0.59l-4.7-1.21c-6.25-1.8-12.47-3.93-18.57-6.57c-6.1-2.64-11.98-5.93-17.56-9.56c-5.56-3.64-10.79-7.66-15.57-11.61
				c-4.81-3.94-9.3-7.67-13.8-10.82c-4.5-3.15-9.01-5.75-13.83-7.81c-4.82-2.06-9.92-3.63-15.3-4.72
				c-5.38-1.07-10.89-1.99-16.61-2.38c-2.82-0.31-5.73-0.35-8.6-0.53c-2.89-0.11-5.81-0.11-8.72-0.17l-0.17,0
				c-6.62-0.14-11.87-5.63-11.73-12.25c0.14-6.51,5.47-11.7,11.94-11.73l0.97,0c6.63-0.03,12.02,5.32,12.04,11.95
				c0.03,6.54-5.19,11.88-11.69,12.04l-0.31,0.01c-2.9,0.07-5.83,0.06-8.72,0.17c-2.87,0.18-5.78,0.22-8.6,0.53l-4.25,0.39
				l-4.18,0.56c-1.41,0.16-2.76,0.42-4.12,0.67c-1.36,0.26-2.74,0.46-4.06,0.78c-5.38,1.09-10.48,2.65-15.3,4.71
				c-4.83,2.05-9.32,4.66-13.83,7.81c-4.5,3.14-8.99,6.88-13.8,10.81c-4.78,3.95-10,7.98-15.57,11.62
				c-5.57,3.63-11.47,6.91-17.56,9.57c-6.1,2.64-12.33,4.77-18.58,6.57c-6.26,1.68-12.55,3.1-18.84,4.07l-2.36,0.39l-1.18,0.19
				l-0.29,0.05l-0.39,0.07l-0.14,0.02l-0.57,0.07l-4.56,0.53l-2.28,0.27l-2.54,0.15l-5.06,0.26c-1.66,0.01-3.31-0.03-4.96-0.05
				l-2.47-0.04l-2.48-0.2c-1.65-0.15-3.3-0.24-4.95-0.46l-4.94-0.79c-6.55-1.3-13-3.3-19.02-6.27c-6-2.98-11.55-6.84-16.28-11.44
				c-4.73-4.6-8.71-9.82-11.87-15.41c-3.21-5.56-5.54-11.49-7.29-17.5c-0.83-3.02-1.52-6.07-2.05-9.13
				c-0.53-3.06-0.88-6.14-0.96-9.22c1.54,5.95,3.71,11.66,6.39,17.06c2.66,5.4,5.78,10.5,9.45,15.08c3.67,4.56,7.8,8.65,12.4,11.98
				c4.58,3.34,9.57,5.97,14.83,7.76c5.25,1.83,10.73,2.89,16.29,3.34c5.56,0.46,11.23,0.15,16.84-0.42l4.07-0.62l2.03-0.3l2.25-0.46
				l4.5-0.91l0.56-0.11l0.14-0.03c0.08-0.01-0.43,0.07-0.18,0.03l0.07-0.02l0.27-0.07l1.07-0.27l2.14-0.54
				c5.73-1.37,11.25-3.19,16.71-5.01c5.39-1.97,10.63-4.18,15.6-6.76c4.98-2.56,9.68-5.49,14.18-8.8c4.51-3.3,8.79-7.02,13.32-11.01
				c4.51-3.99,9.26-8.29,14.64-12.38c5.34-4.12,11.43-7.81,17.79-10.7c6.37-2.91,12.99-5.08,19.57-6.58
				c1.65-0.45,3.29-0.7,4.94-1.02c1.65-0.31,3.3-0.64,4.93-0.84l4.92-0.69l4.88-0.49c3.27-0.37,6.48-0.46,9.72-0.68
				c3.22-0.15,6.42-0.18,9.63-0.26l0.04,24l-0.97,0l0.04-23.99c3.21,0.09,6.41,0.11,9.63,0.26c3.24,0.22,6.45,0.3,9.72,0.68
				l4.88,0.49l4.92,0.69c1.63,0.2,3.28,0.53,4.93,0.84c1.65,0.32,3.29,0.6,4.94,1.04c6.58,1.5,13.2,3.67,19.57,6.58
				c1.6,0.71,3.14,1.54,4.71,2.31c1.55,0.81,3.05,1.71,4.57,2.57c1.47,0.92,2.93,1.86,4.36,2.82c1.38,1,2.81,1.97,4.14,3
				c5.38,4.09,10.13,8.4,14.64,12.38c4.53,3.99,8.79,7.72,13.32,11.02c4.5,3.31,9.21,6.23,14.19,8.8
				c4.98,2.57,10.21,4.78,15.61,6.76l4.11,1.36l2.05,0.7l2.04,0.61l4.1,1.22c1.4,0.4,2.95,0.75,4.41,1.13l2.23,0.56l1.11,0.28
				l0.28,0.07l0.07,0.02c0.16,0.03-0.14-0.02-0.08-0.01l0.13,0.03l0.53,0.11l4.21,0.86l2.11,0.44l2.11,0.31l4.23,0.64
				c5.62,0.57,11.28,0.87,16.85,0.42c5.56-0.45,11.04-1.52,16.3-3.35c5.27-1.8,10.25-4.43,14.84-7.77c4.6-3.33,8.72-7.42,12.4-11.99
				c3.67-4.57,6.79-9.68,9.45-15.08C1239.23,1092.62,1241.4,1086.91,1242.93,1080.95z"/>
		</g>
	</g>
	<g>
		
			<ellipse transform="matrix(0.3222 -0.9467 0.9467 0.3222 -180.5566 1368.7183)" class="st2" cx="865.52" cy="810.44" rx="29.11" ry="36.7"/>
	</g>
	<g>
		
			<ellipse transform="matrix(0.9467 -0.3222 0.3222 0.9467 -200.6099 408.7)" class="st2" cx="1134.48" cy="810.44" rx="36.7" ry="29.11"/>
	</g>
	<g>
		<path class="st1" d="M1857.95,1348.02H142.05c-6.63,0-12-5.37-12-12s5.37-12,12-12h1715.91c6.63,0,12,5.37,12,12
			S1864.58,1348.02,1857.95,1348.02z"/>
	</g>
	<g>
		<path class="st1" d="M987,1102.18l12-94.33l12,94.33c0.84,6.63-3.85,12.68-10.47,13.53c-6.63,0.84-12.68-3.85-13.53-10.47
			C986.87,1104.22,986.88,1103.15,987,1102.18z"/>
	</g>
	<g>
		<path class="st2" d="M590.73,1350.13c0,0,25.78,45.29,66.99,9.38c41.21-35.91,23.24-190.65-136.28-185.36
			c-159.51,5.29-165.72,181.74-127.49,217.57c49.73,46.61,79.29-9.82,83.15-29.11c0,0-11.66,58.43,60.59,47.13
			S590.73,1350.13,590.73,1350.13z"/>
		<path class="st1" d="M520.47,1423.18C520.46,1423.18,520.46,1423.18,520.47,1423.18c-20.05,0-35.17-6.06-44.97-18
			c-1.42-1.73-2.67-3.53-3.76-5.36c-9.72,12.04-23.4,21.88-40.97,21.88c-14.84,0-29.99-7.15-45.02-21.24
			c-12.02-11.27-20.26-32.51-22.6-58.28c-2.4-26.4,1.5-54.81,10.97-79.99c10.48-27.86,27.71-51.45,49.81-68.24
			c26.11-19.84,58.79-30.54,97.12-31.81c2.78-0.09,5.57-0.14,8.3-0.14c39.46,0,73.11,9.53,100,28.32
			c22.84,15.96,40.18,38.45,50.13,65.04c16.28,43.45,10.31,92.11-13.88,113.18c-12.79,11.15-25.92,16.8-39.01,16.8
			c-9.2,0-17.12-2.77-23.68-6.62c-0.99,3.3-2.38,6.67-4.29,10.02c-9.81,17.19-29.68,28.23-59.08,32.83
			C532.77,1422.65,526.35,1423.18,520.47,1423.18z M477.08,1350.6c0.78,0,1.57,0.08,2.36,0.23c6.5,1.3,10.72,7.62,9.42,14.11
			c-0.01,0.08-2.77,15.44,5.27,25.11c5.03,6.05,13.89,9.12,26.33,9.12c0,0,0,0,0,0c4.65,0,9.82-0.44,15.36-1.31
			c21.36-3.34,35.81-10.53,41.81-20.79c6.07-10.39,2.29-21.53,1.91-22.57c-2.43-5.84,0.14-12.46,5.82-15.26
			c5.7-2.81,12.64-0.58,15.78,4.94c0.07,0.12,10.2,17.16,25.43,17.16c7.13,0,14.95-3.66,23.25-10.89
			c14.37-12.52,21.2-49.22,7.17-86.67c-8.76-23.39-38.73-77.78-127.66-77.78c-2.46,0-4.99,0.04-7.51,0.12
			c-82.34,2.73-113.82,54.13-125.26,84.52c-8.23,21.86-11.61,46.5-9.54,69.36c1.76,19.4,7.56,35.85,15.11,42.94
			c10.44,9.79,20.07,14.75,28.61,14.75c19.29,0,32.36-26.44,34.56-37.46C466.47,1354.54,471.48,1350.6,477.08,1350.6z"/>
	</g>
	<g>
		<path class="st3" d="M1103.09,1196.22c-24.67-34.62-103.09-8.71-103.09-8.71s-78.43-25.91-103.09,8.71
			c-24.67,34.62-69.81,214.44,103.09,214.44S1127.76,1230.85,1103.09,1196.22z"/>
		<path class="st1" d="M1000,1422.66c-31.78,0-58.73-5.88-80.13-17.49c-19.42-10.53-34.35-25.75-44.39-45.22
			c-17.33-33.62-16.36-72.42-12.49-99.05c4.76-32.76,15.55-59.59,24.14-71.65c10.9-15.3,30.01-23.06,56.79-23.06
			c23.67,0,47.12,6.13,56.08,8.76c8.96-2.63,32.4-8.76,56.08-8.76c26.78,0,45.89,7.76,56.79,23.06
			c8.59,12.06,19.39,38.89,24.15,71.65c3.87,26.63,4.84,65.42-12.49,99.05c-10.04,19.47-24.97,34.69-44.39,45.22
			C1058.74,1416.78,1031.78,1422.66,1000,1422.66z M943.92,1190.2c-18.57,0-31.1,4.37-37.24,12.99
			c-6.9,9.69-15.97,33.81-19.94,61.17c-3.36,23.16-4.34,56.63,10.08,84.61c17,32.98,51.71,49.7,103.19,49.7
			c51.47,0,86.19-16.72,103.19-49.7c14.42-27.98,13.44-61.45,10.08-84.6c-3.97-27.36-13.04-51.49-19.94-61.17
			c-6.14-8.62-18.67-12.99-37.24-12.99c-25.54,0-52.06,8.62-52.32,8.71c-2.44,0.8-5.08,0.8-7.52,0
			C995.98,1198.82,969.45,1190.2,943.92,1190.2z"/>
	</g>
	<g>
		<g>
			<line class="st3" x1="1000" y1="1187.51" x2="1000" y2="1379.21"/>
		</g>
		<g>
			<path class="st1" d="M1012,1187.51l-12,191.7l-12-191.7c-0.41-6.63,4.62-12.34,11.25-12.75c6.63-0.41,12.34,4.62,12.75,11.25
				C1012.03,1186.49,1012.03,1187.04,1012,1187.51z"/>
		</g>
	</g>
	<path class="st1" d="M1247.45,852.39c-2.46,0.52-4.88,1.02-7.29,1.57c-2.4,0.52-4.78,1.09-7.14,1.64
		c-4.72,1.14-9.37,2.32-13.93,3.64c-4.57,1.27-9.04,2.73-13.41,4.24c-4.37,1.53-8.63,3.21-12.75,5.02
		c-2.05,0.93-4.08,1.86-6.06,2.86c-1.98,0.99-3.91,2.05-5.8,3.12c-3.77,2.18-7.34,4.53-10.65,7.1c-1.66,1.28-3.25,2.61-4.77,4
		c-1.54,1.37-2.97,2.82-4.35,4.31c-1.4,1.47-2.68,3.03-3.92,4.61c-1.25,1.58-2.37,3.25-3.47,4.92l-11.88-18.29l2.14-0.27l1.97-0.21
		c1.3-0.13,2.59-0.25,3.88-0.33c2.57-0.16,5.13-0.31,7.69-0.35c5.11-0.11,10.22,0,15.33,0.38c2.55,0.17,5.1,0.43,7.65,0.74
		c2.55,0.29,5.08,0.69,7.62,1.12c5.06,0.91,10.1,2.04,15.06,3.54c2.48,0.73,4.94,1.58,7.37,2.48c2.43,0.92,4.83,1.91,7.19,3.02
		c2.36,1.1,4.69,2.27,6.94,3.59c2.25,1.32,4.47,2.67,6.59,4.19c2.11,1.54,4.18,3.1,6.12,4.83c1.93,1.74,3.79,3.53,5.49,5.47
		c1.71,1.92,3.27,3.96,4.7,6.05c1.39,2.13,2.65,4.32,3.68,6.6c-2.08-1.42-4.1-2.78-6.17-4.01c-2.07-1.24-4.17-2.35-6.26-3.41
		c-4.23-2.05-8.51-3.76-12.87-5.12c-4.34-1.4-8.75-2.46-13.19-3.33c-4.44-0.86-8.91-1.51-13.41-1.99
		c-8.99-0.95-18.08-1.24-27.18-1.1c-4.55,0.08-9.1,0.26-13.64,0.56c-2.27,0.16-4.53,0.31-6.77,0.54l-3.34,0.34l-1.63,0.19
		l-1.45,0.19l-0.25,0.03c-6.55,0.87-12.56-3.73-13.43-10.27c-0.39-2.92,0.32-5.75,1.8-8.05c1.54-2.39,3.19-4.72,4.96-6.94
		c1.8-2.2,3.68-4.33,5.69-6.31c2.03-1.97,4.1-3.87,6.3-5.6c2.2-1.72,4.43-3.39,6.77-4.86c4.64-2.99,9.52-5.48,14.49-7.52
		c2.49-1.02,5-1.91,7.53-2.74c2.53-0.79,5.07-1.5,7.63-2.1c5.1-1.21,10.24-2.04,15.36-2.52c5.12-0.5,10.24-0.62,15.31-0.5
		c2.54,0.1,5.07,0.23,7.58,0.46c2.52,0.25,5.02,0.52,7.51,0.93c2.49,0.38,4.96,0.87,7.41,1.42
		C1242.64,850.9,1245.07,851.53,1247.45,852.39z"/>
	<path class="st1" d="M752.55,852.39c2.38-0.86,4.81-1.49,7.26-2.08c2.45-0.56,4.92-1.04,7.41-1.42c2.49-0.42,4.99-0.68,7.51-0.93
		c2.52-0.23,5.04-0.36,7.58-0.46c5.07-0.12,10.19-0.01,15.31,0.5c5.12,0.48,10.26,1.31,15.36,2.52c2.55,0.6,5.09,1.31,7.63,2.1
		c2.52,0.82,5.04,1.71,7.53,2.74c4.97,2.04,9.85,4.53,14.49,7.52c2.34,1.47,4.57,3.14,6.77,4.86c2.2,1.73,4.27,3.64,6.3,5.6
		c2.01,1.99,3.89,4.12,5.69,6.31c1.77,2.22,3.42,4.54,4.96,6.94c3.57,5.55,1.97,12.95-3.58,16.52c-2.48,1.59-5.32,2.16-8.03,1.8
		l-0.27-0.04l-1.45-0.19l-1.63-0.19l-3.34-0.34c-2.24-0.22-4.5-0.38-6.77-0.54c-4.53-0.3-9.09-0.48-13.64-0.56
		c-9.1-0.14-18.19,0.15-27.18,1.1c-4.5,0.47-8.97,1.13-13.41,1.99c-4.44,0.87-8.85,1.93-13.19,3.33c-4.36,1.37-8.63,3.07-12.87,5.12
		c-2.09,1.05-4.19,2.17-6.26,3.41c-2.07,1.24-4.1,2.6-6.17,4.01c1.03-2.29,2.29-4.47,3.68-6.6c1.43-2.09,2.99-4.13,4.7-6.05
		c1.7-1.94,3.56-3.73,5.49-5.47c1.94-1.73,4.01-3.3,6.12-4.83c2.12-1.52,4.34-2.87,6.59-4.19c2.25-1.32,4.58-2.49,6.94-3.59
		c2.36-1.11,4.76-2.1,7.19-3.02c2.43-0.91,4.89-1.75,7.37-2.48c4.96-1.51,10-2.64,15.06-3.54c2.53-0.43,5.07-0.82,7.62-1.12
		c2.54-0.31,5.09-0.56,7.65-0.74c5.1-0.38,10.21-0.48,15.33-0.38c2.56,0.04,5.12,0.18,7.69,0.35c1.29,0.08,2.58,0.2,3.88,0.33
		l1.97,0.21l2.14,0.27l-11.88,18.29c-1.1-1.68-2.22-3.35-3.47-4.92c-1.24-1.58-2.52-3.15-3.92-4.61c-1.38-1.49-2.82-2.94-4.35-4.31
		c-1.52-1.39-3.11-2.72-4.77-4c-3.31-2.56-6.89-4.92-10.65-7.1c-1.89-1.07-3.82-2.13-5.8-3.12c-1.98-1-4-1.94-6.06-2.86
		c-4.12-1.81-8.38-3.49-12.75-5.02c-4.37-1.51-8.84-2.97-13.41-4.24c-4.56-1.32-9.21-2.5-13.93-3.64c-2.36-0.55-4.74-1.12-7.14-1.64
		C757.43,853.41,755.02,852.91,752.55,852.39z"/>
</g>
</svg>
