<svg width="17" height="16" viewBox="0 0 17 16" fill="none" xmlns="http://www.w3.org/2000/svg">
<path fill-rule="evenodd" clip-rule="evenodd" d="M11.3548 0.666656C11.4174 1.47944 11.1589 2.28448 10.6343 2.91081C10.1252 3.54039 9.35389 3.90303 8.54154 3.89471C8.48988 3.10532 8.75589 2.32789 9.281 1.73364C9.81278 1.13134 10.5532 0.750377 11.3548 0.666656ZM13.924 5.44242C12.9895 6.01369 12.4145 7.02115 12.4004 8.11182C12.4017 9.3458 13.1449 10.4594 14.2878 10.9401C14.068 11.6501 13.7367 12.3212 13.3061 12.9283C12.7278 13.7885 12.1215 14.6288 11.1592 14.6443C10.7016 14.6548 10.3926 14.524 10.0707 14.3876C9.73491 14.2454 9.38501 14.0971 8.83747 14.0971C8.25678 14.0971 7.89121 14.2501 7.53863 14.3977C7.23394 14.5252 6.93895 14.6486 6.52323 14.6658C5.60678 14.6995 4.90639 13.7477 4.30711 12.8957C3.10932 11.1556 2.17662 7.99175 3.42703 5.83902C4.01421 4.78981 5.11209 4.12402 6.31898 4.08524C6.83875 4.07461 7.3375 4.27382 7.77478 4.44847C8.10919 4.58204 8.40764 4.70124 8.65203 4.70124C8.86687 4.70124 9.15699 4.58674 9.49511 4.45331C10.0277 4.24311 10.6794 3.98591 11.3435 4.05523C12.3755 4.08733 13.3318 4.60143 13.924 5.44242Z" fill="#2A2A2E"/>
</svg>
