<?xml version="1.0" encoding="UTF-8"?>
<svg width="210px" height="250px" viewBox="0 0 210 250" version="1.1" xmlns="http://www.w3.org/2000/svg" xmlns:xlink="http://www.w3.org/1999/xlink">
    <title>Page 1</title>
    <g id="Page-1" stroke="none" stroke-width="1" fill="none" fill-rule="evenodd">
        <polygon id="Fill-1" fill="#FFFFFF" points="-1226.94 859 1973 859 1973 -740.96 -1226.94 -740.96"></polygon>
        <g id="Group" transform="translate(0.601533, 0.749433)">
            <path d="M177.948467,161.749567 C180.278467,169.121567 181.818467,177.309567 182.558467,186.296567 C183.778467,186.541567 184.918467,186.866567 185.998467,187.256567 C187.598467,181.959567 189.688467,176.858567 193.558467,172.861567 C190.868467,171.256567 188.098467,169.776567 185.288467,168.461567 C184.258467,167.982567 183.818467,166.764567 184.298467,165.740567 C184.778467,164.716567 185.998467,164.273567 187.018467,164.752567 C190.368467,166.317567 193.658467,168.106567 196.818467,170.061567 C197.418467,169.627567 198.028467,169.211567 198.618467,168.807567 C200.458467,167.564567 202.188467,166.391567 203.398467,164.827567 C206.408467,160.946567 205.438467,154.365567 201.368467,151.021567 C197.438467,147.790567 191.078467,147.479567 186.248467,150.285567 C182.278467,152.593567 179.278467,156.784567 177.948467,161.749567" id="Fill-762" fill="#BA9C7B"></path>
            <path d="M184.298467,165.740567 C183.818467,166.764567 184.258467,167.982567 185.288467,168.461567 C188.098467,169.776567 190.868467,171.256567 193.558467,172.861567 C194.088467,172.316567 194.628467,171.784567 195.228467,171.282567 C195.748467,170.849567 196.278467,170.447567 196.818467,170.061567 C193.658467,168.106567 190.368467,166.317567 187.018467,164.752567 C185.998467,164.273567 184.778467,164.716567 184.298467,165.740567" id="Fill-763" fill="#30190E"></path>
            <path d="M152.288467,149.370567 C152.288467,149.423567 152.308467,149.472567 152.308467,149.524567 C152.458467,153.144567 150.178467,156.324567 147.818467,158.892567 C136.988467,170.649567 121.618467,177.059567 106.268467,177.324567 C105.068467,177.345567 103.868467,177.317567 102.668467,177.267567 C101.478467,177.317567 100.278467,177.345567 99.0684671,177.324567 C83.7284671,177.059567 68.3584671,170.649567 57.5284671,158.892567 C55.1584671,156.324567 52.8884671,153.144567 53.0384671,149.524567 C53.0384671,149.472567 53.0584671,149.423567 53.0584671,149.370567 C53.0284671,148.626567 53.0884671,147.855567 53.2584671,147.061567 C49.7784671,145.267567 46.2284671,143.257567 42.6184671,141.016567 C38.4584671,146.237567 35.0784671,152.388567 32.5084671,159.422567 C36.5484671,161.942567 40.8284671,164.089567 45.2784671,165.771567 C46.3284671,166.171567 46.8684671,167.353567 46.4684671,168.409567 C46.1584671,169.229567 45.3784671,169.733567 44.5484671,169.733567 C44.3084671,169.733567 44.0684671,169.690567 43.8284671,169.601567 C39.4284671,167.938567 35.1884671,165.841567 31.1584671,163.399567 C29.7284671,168.024567 28.6184671,172.999567 27.8284671,178.309567 L41.5584671,183.333567 C42.6184671,183.721567 43.1684671,184.896567 42.7784671,185.959567 C42.4784671,186.788567 41.6884671,187.303567 40.8584671,187.303567 C40.6184671,187.303567 40.3784671,187.264567 40.1484671,187.178567 L27.2784671,182.470567 C27.0684671,184.341567 26.8784671,186.240567 26.7384671,188.189567 C26.6784671,189.151567 25.9384671,189.936567 24.9884671,190.070567 C14.8784671,191.501567 12.2584671,198.006567 11.8284671,203.212567 C11.3084671,209.688567 14.0184671,217.562567 18.0284671,223.300567 C20.2184671,219.425567 24.4084671,216.664567 28.5684671,216.060567 C32.3284671,215.511567 35.8984671,216.434567 38.3584671,218.591567 C39.1984671,219.338567 39.2884671,220.631567 38.5384671,221.479567 C37.7984671,222.329567 36.4984671,222.412567 35.6484671,221.664567 C34.0984671,220.302567 31.7284671,219.735567 29.1484671,220.111567 C24.8284671,220.739567 20.2484671,224.751567 20.5884671,229.504567 C20.7884671,232.333567 22.7484671,235.225567 25.7084671,237.049567 C29.9784671,239.674567 35.8384671,240.131567 41.8084671,238.299567 C45.2684671,237.235567 48.4984671,235.572567 51.7684671,233.568567 C52.5584671,231.563567 54.2684671,229.594567 56.0584671,227.538567 C57.7484671,225.615567 59.8384671,223.221567 59.8684671,221.907567 C60.0484671,213.348567 58.3884671,197.117567 57.2984671,186.377567 C57.0484671,183.994567 56.8384671,181.882567 56.6784671,180.182567 C56.5684671,179.057567 57.3984671,178.057567 58.5184671,177.949567 C59.6384671,177.840567 60.6484671,178.667567 60.7484671,179.794567 C60.9084671,181.486567 61.1284671,183.590567 61.3684671,185.962567 C61.7884671,190.075567 62.2884671,194.986567 62.7384671,199.979567 C67.7584671,200.312567 72.7184671,201.294567 77.4684671,202.975567 C78.5384671,203.351567 79.0984671,204.521567 78.7184671,205.586567 C78.4284671,206.427567 77.6384671,206.952567 76.7884671,206.952567 C76.5684671,206.952567 76.3384671,206.915567 76.1084671,206.835567 C71.8984671,205.350567 67.5284671,204.460567 63.0984671,204.111567 C63.5684671,209.898567 63.9284671,215.519567 63.9684671,219.871567 C69.0184671,219.820567 73.7384671,220.867567 78.3184671,223.060567 C79.3384671,223.547567 79.7684671,224.770567 79.2784671,225.789567 C78.9284671,226.524567 78.1984671,226.954567 77.4284671,226.954567 C77.1384671,226.954567 76.8384671,226.889567 76.5484671,226.753567 C72.3484671,224.744567 68.1884671,223.864567 63.5484671,223.979567 C62.7784671,226.065567 61.0084671,228.104567 59.1484671,230.232567 C57.5184671,232.091567 55.4984671,234.402567 55.3984671,235.705567 C55.1784671,238.309567 55.5784671,240.001567 56.6784671,241.193567 C58.6184671,243.286567 63.1784671,244.305567 70.6184671,244.305567 C70.6984671,244.305567 70.7784671,244.305567 70.8584671,244.305567 C77.9984671,244.283567 86.1684671,242.080567 86.9084671,238.557567 C88.0184671,233.265567 87.9584671,216.721567 87.9184671,203.428567 C87.8984671,197.439567 87.8784671,191.782567 87.9684671,187.686567 C87.9884671,186.570567 88.8984671,185.682567 90.0084671,185.682567 C90.0284671,185.682567 90.0384671,185.682567 90.0584671,185.682567 C91.1884671,185.705567 92.0784671,186.640567 92.0584671,187.771567 C92.0284671,189.311567 92.0084671,191.083567 91.9984671,193.014567 C97.4584671,193.664567 104.858467,193.976567 113.338467,192.827567 C113.328467,190.970567 113.318467,189.261567 113.288467,187.771567 C113.258467,186.640567 114.158467,185.705567 115.288467,185.682567 C115.298467,185.682567 115.318467,185.682567 115.328467,185.682567 C116.448467,185.682567 117.358467,186.570567 117.378467,187.686567 C117.458467,191.782567 117.448467,197.439567 117.428467,203.428567 C117.378467,216.721567 117.328467,233.265567 118.438467,238.557567 C119.178467,242.080567 127.348467,244.283567 134.488467,244.305567 C134.568467,244.305567 134.648467,244.305567 134.728467,244.305567 C142.168467,244.305567 146.728467,243.286567 148.658467,241.193567 C149.768467,240.001567 150.158467,238.309567 149.948467,235.705567 C149.838467,234.402567 147.818467,232.091567 146.198467,230.232567 C144.288467,228.044567 142.468467,225.950567 141.738467,223.800567 C137.338467,223.687567 133.298467,224.599567 128.788467,226.753567 C128.508467,226.889567 128.208467,226.954567 127.908467,226.954567 C127.148467,226.954567 126.418467,226.524567 126.058467,225.789567 C125.578467,224.770567 126.008467,223.547567 127.028467,223.060567 C131.998467,220.683567 136.488467,219.629567 141.378467,219.694567 C141.428467,215.366567 141.778467,209.822567 142.248467,204.111567 C137.818467,204.460567 133.438467,205.350567 129.238467,206.835567 C129.008467,206.915567 128.778467,206.952567 128.548467,206.952567 C127.708467,206.952567 126.918467,206.428567 126.628467,205.586567 C126.248467,204.521567 126.808467,203.351567 127.868467,202.975567 C132.628467,201.295567 137.578467,200.312567 142.608467,199.979567 C143.058467,194.986567 143.558467,190.075567 143.978467,185.962567 C144.218467,183.590567 144.428467,181.486567 144.598467,179.794567 C144.698467,178.667567 145.708467,177.841567 146.828467,177.949567 C147.948467,178.057567 148.778467,179.057567 148.668467,180.182567 C148.508467,181.882567 148.288467,183.994567 148.048467,186.377567 C146.958467,197.117567 145.298467,213.348567 145.478467,221.907567 C145.508467,223.221567 147.598467,225.615567 149.278467,227.538567 C151.158467,229.688567 152.938467,231.743567 153.678467,233.846567 C157.188467,235.768567 160.718467,237.433567 163.538467,238.299567 C169.508467,240.134567 175.368467,239.674567 179.628467,237.049567 C182.588467,235.224567 184.558467,232.333567 184.758467,229.504567 C185.088467,224.751567 180.508467,220.739567 176.198467,220.111567 C173.608467,219.738567 171.238467,220.302567 169.698467,221.664567 C168.848467,222.412567 167.548467,222.328567 166.808467,221.479567 C166.058467,220.631567 166.138467,219.338567 166.988467,218.591567 C169.438467,216.435567 173.008467,215.508567 176.778467,216.060567 C180.938467,216.664567 185.128467,219.426567 187.318467,223.301567 C191.328467,217.563567 194.038467,209.688567 193.508467,203.213567 C193.088467,198.007567 190.468467,191.501567 180.358467,190.070567 C179.398467,189.936567 178.668467,189.151567 178.598467,188.189567 C178.458467,186.239567 178.278467,184.341567 178.058467,182.470567 L165.188467,187.178567 C164.958467,187.263567 164.728467,187.303567 164.488467,187.303567 C163.658467,187.303567 162.868467,186.788567 162.568467,185.959567 C162.178467,184.896567 162.728467,183.721567 163.788467,183.333567 L177.518467,178.309567 C176.728467,172.999567 175.618467,168.024567 174.178467,163.398567 C170.158467,165.841567 165.918467,167.938567 161.518467,169.601567 C161.278467,169.690567 161.038467,169.733567 160.798467,169.733567 C159.968467,169.733567 159.188467,169.229567 158.878467,168.409567 C158.478467,167.353567 159.008467,166.171567 160.068467,165.771567 C164.518467,164.089567 168.798467,161.942567 172.838467,159.422567 C170.248467,152.341567 166.848467,146.154567 162.638467,140.912567 C159.658467,142.811567 156.128467,144.961567 152.098467,147.121567 C152.258467,147.895567 152.318467,148.645567 152.288467,149.370567" id="Fill-764" fill="#BA9C7B"></path>
            <path d="M91.9984671,193.014567 C91.9884671,196.156567 91.9984671,199.721567 92.0184671,203.415567 C92.0484671,213.633567 92.0784671,224.811567 91.6484671,232.412567 C98.1484671,233.055567 107.278467,233.083567 113.698467,232.486567 C113.268467,224.884567 113.298467,213.666567 113.328467,203.415567 C113.338467,199.647567 113.358467,196.015567 113.338467,192.827567 C104.858467,193.976567 97.4584671,193.664567 91.9984671,193.014567" id="Fill-765" fill="#96724D"></path>
            <path d="M44.5484671,169.733567 C45.3784671,169.733567 46.1584671,169.229567 46.4684671,168.409567 C46.8684671,167.353567 46.3284671,166.171567 45.2784671,165.771567 C40.8284671,164.089567 36.5484671,161.942567 32.5084671,159.422567 C32.0284671,160.719567 31.5784671,162.042567 31.1584671,163.399567 C35.1884671,165.841567 39.4284671,167.938567 43.8284671,169.601567 C44.0684671,169.690567 44.3084671,169.733567 44.5484671,169.733567" id="Fill-766" fill="#30190E"></path>
            <path d="M40.8584671,187.303567 C41.6884671,187.303567 42.4784671,186.788567 42.7784671,185.959567 C43.1684671,184.896567 42.6184671,183.721567 41.5584671,183.333567 L27.8284671,178.309567 C27.6184671,179.673567 27.4384671,181.061567 27.2784671,182.470567 L40.1484671,187.178567 C40.3784671,187.264567 40.6184671,187.303567 40.8584671,187.303567" id="Fill-767" fill="#30190E"></path>
            <path d="M158.878467,168.409567 C159.188467,169.229567 159.968467,169.733567 160.798467,169.733567 C161.038467,169.733567 161.278467,169.690567 161.518467,169.601567 C165.918467,167.938567 170.158467,165.841567 174.178467,163.398567 C173.758467,162.042567 173.308467,160.719567 172.838467,159.422567 C168.798467,161.942567 164.518467,164.089567 160.068467,165.771567 C159.008467,166.171567 158.478467,167.353567 158.878467,168.409567" id="Fill-768" fill="#30190E"></path>
            <path d="M163.788467,183.333567 C162.728467,183.721567 162.178467,184.896567 162.568467,185.959567 C162.868467,186.788567 163.658467,187.303567 164.488467,187.303567 C164.728467,187.303567 164.958467,187.263567 165.188467,187.178567 L178.058467,182.470567 C177.898467,181.062567 177.718467,179.673567 177.518467,178.309567 L163.788467,183.333567" id="Fill-769" fill="#30190E"></path>
            <path d="M53.0384671,149.524567 C52.8884671,153.144567 55.1584671,156.324567 57.5284671,158.892567 C68.3584671,170.649567 83.7284671,177.059567 99.0684671,177.324567 C100.278467,177.345567 101.478467,177.317567 102.668467,177.267567 C103.868467,177.317567 105.068467,177.345567 106.268467,177.324567 C121.618467,177.059567 136.988467,170.649567 147.818467,158.892567 C150.178467,156.324567 152.458467,153.144567 152.308467,149.524567 C152.308467,149.472567 152.288467,149.423567 152.288467,149.370567 C152.318467,148.645567 152.258467,147.895567 152.098467,147.121567 C131.308467,158.254567 96.9884671,169.558567 53.2584671,147.061567 C53.0884671,147.855567 53.0284671,148.626567 53.0584671,149.370567 C53.0584671,149.423567 53.0384671,149.472567 53.0384671,149.524567" id="Fill-770" fill="#EAEBED"></path>
            <path d="M26.4284671,49.2555672 C25.0684671,47.7885672 23.8784671,46.1565672 22.8184671,44.4235672 C14.8984671,31.4635672 14.8484671,12.6725672 16.2284671,12.0985672 C21.3184671,9.98356721 34.7884671,15.4845672 42.4384671,20.8365672 C43.8884671,21.8505672 45.1484671,22.8585672 46.0784671,23.8085672 L26.4284671,49.2555672 Z M49.6284671,71.7705672 C51.0884671,65.3375672 60.5484671,65.2775672 66.3884671,66.6165672 C71.4584671,67.7775672 78.0384671,72.8105672 77.9684671,78.3675672 C77.8684671,86.0265672 69.6984671,88.3295672 62.7184671,86.3415672 C53.3684671,83.6775672 48.7284671,75.7295672 49.6284671,71.7705672 Z M95.0384671,85.8545672 C95.0884671,83.9865672 97.2084671,82.1165672 102.588467,82.1165672 C107.728467,82.1165672 110.338467,84.3095672 110.308467,85.6115672 C110.288467,86.1735672 110.138467,86.7045672 109.928467,87.2175672 C120.768467,87.5345672 134.938467,94.2645672 142.358467,100.391567 C147.858467,104.925567 152.008467,111.514567 152.188467,118.636567 C152.248467,120.943567 151.878467,123.303567 150.788467,125.334567 C149.168467,128.342567 146.158467,130.322567 143.128467,131.911567 C138.088467,134.561567 119.718467,139.256567 101.608467,139.204012 C84.2084671,139.152567 67.0584671,134.457567 62.2084671,131.911567 C59.1884671,130.322567 56.1784671,128.342567 54.5584671,125.334567 C53.4584671,123.303567 53.0884671,120.943567 53.1484671,118.636567 C53.3384671,111.514567 57.4884671,104.925567 62.9784671,100.391567 C70.3684671,94.2945672 84.4384671,87.5985672 95.2584671,87.2195672 C95.1084671,86.7885672 95.0284671,86.3355672 95.0384671,85.8545672 Z M138.958467,66.6165672 C144.788467,65.2775672 154.258467,65.3375672 155.718467,71.7705672 C156.618467,75.7295672 151.978467,83.6775672 142.628467,86.3415672 C135.638467,88.3295672 127.468467,86.0265672 127.368467,78.3675672 C127.298467,72.8105672 133.888467,67.7775672 138.958467,66.6165672 Z M162.908467,20.8365672 C170.558467,15.4845672 184.028467,9.98356721 189.118467,12.0985672 C190.498467,12.6725672 190.448467,31.4635672 182.528467,44.4235672 C181.468467,46.1565672 180.278467,47.7885672 178.918467,49.2555672 L159.258467,23.8085672 C160.198467,22.8585672 161.458467,21.8505672 162.908467,20.8365672 Z M20.3384671,101.926567 L15.6084671,102.574567 C16.1984671,105.837567 17.1484671,108.907567 18.4184671,111.782567 L23.4984671,109.436567 C24.5184671,108.963567 25.7384671,109.409567 26.2084671,110.436567 C26.6884671,111.462567 26.2384671,112.678567 25.2184671,113.153567 L20.2484671,115.447567 C21.9184671,118.424567 23.8984671,121.170567 26.0884671,123.700567 L29.5084671,120.452567 C30.3284671,119.674567 31.6284671,119.708567 32.3984671,120.528567 C33.1784671,121.349567 33.1484671,122.645567 32.3284671,123.423567 L28.8684671,126.701567 C33.1184671,130.976567 37.8984671,134.545567 42.5384671,137.448567 C42.8184671,137.625567 43.0484671,137.870567 43.2084671,138.151567 C88.9384671,153.753567 112.958467,155.363567 162.108467,138.007567 C162.268467,137.751567 162.478467,137.530567 162.748467,137.366567 C167.398467,134.479567 172.178467,130.927567 176.438467,126.668567 L173.018467,123.423567 C172.198467,122.645567 172.168467,121.349567 172.948467,120.528567 C173.718467,119.708567 175.018467,119.674567 175.838467,120.452567 L179.228467,123.673567 C181.428467,121.150567 183.408467,118.410567 185.078467,115.439567 L180.128467,113.153567 C179.108467,112.678567 178.658467,111.462567 179.128467,110.436567 C179.608467,109.409567 180.828467,108.963567 181.848467,109.436567 L186.908467,111.776567 C188.178467,108.904567 189.138467,105.836567 189.728467,102.572567 L185.008467,101.926567 C183.888467,101.771567 183.108467,100.740567 183.258467,99.6195672 C183.408467,98.4985672 184.468467,97.7155672 185.568467,97.8695672 L190.238467,98.5115672 C190.538467,94.4285672 190.258467,90.0605672 189.228467,85.3935672 C180.918467,81.1085672 176.698467,79.4765672 168.098467,78.2495672 C166.978467,78.0905672 166.208467,77.0535672 166.368467,75.9345672 C166.528467,74.8145672 167.558467,74.0335672 168.678467,74.1965672 C176.818467,75.3565672 181.428467,76.9305672 188.468467,80.4195672 C187.498467,71.4825672 185.578467,63.2125672 182.718467,55.8115672 C182.468467,55.1605672 182.568467,54.4275672 182.978467,53.8645672 C196.058467,36.0285672 196.648467,8.79756721 195.538467,4.39256721 C187.708467,2.11056721 165.198467,11.5785672 155.038467,20.2115672 C154.378467,20.7705672 153.438467,20.8555672 152.688467,20.4275672 C145.438467,16.2675672 137.178467,13.2085672 128.058467,11.1915672 C127.188467,15.5425672 129.318467,34.0055672 132.558467,40.4065672 C133.068467,41.4155672 132.668467,42.6465672 131.658467,43.1565672 C131.358467,43.3065672 131.048467,43.3775672 130.728467,43.3775672 C129.988467,43.3775672 129.268467,42.9665672 128.908467,42.2545672 C125.908467,36.3275672 122.748467,17.6495672 124.128467,10.3855672 C118.358467,9.33356721 112.268467,8.66756721 105.838467,8.44156721 C105.658467,8.43556721 105.248467,8.43156721 104.718467,8.42756721 L104.718467,45.1195672 C104.718467,46.2505672 103.798467,47.1665672 102.668467,47.1665672 C101.538467,47.1665672 100.628467,46.2505672 100.628467,45.1195672 L100.628467,8.42756721 C100.088467,8.43056721 99.6684671,8.43556721 99.4984671,8.44156721 C93.0684671,8.66756721 86.9884671,9.33256721 81.2184671,10.3835672 C82.5984671,17.6465672 79.4384671,36.3275672 76.4384671,42.2545672 C76.0784671,42.9665672 75.3584671,43.3775672 74.6084671,43.3775672 C74.2984671,43.3775672 73.9884671,43.3065672 73.6884671,43.1565672 C72.6784671,42.6465672 72.2784671,41.4155672 72.7884671,40.4065672 C76.0284671,34.0065672 78.1484671,15.5425672 77.2884671,11.1895672 C68.1584671,13.2055672 59.8984671,16.2645672 52.6484671,20.4235672 C51.8984671,20.8535672 50.9684671,20.7675672 50.3084671,20.2085672 C40.1384671,11.5775672 17.6384671,2.11356721 9.79846713,4.39256721 C8.69846713,8.79556721 9.28846713,36.0215672 22.3584671,53.8565672 C22.7684671,54.4195672 22.8684671,55.1535672 22.6184671,55.8045672 C19.7584671,63.2085672 17.8384671,71.4835672 16.8684671,80.4245672 C23.9084671,76.9325672 28.5284671,75.3575672 36.6684671,74.1965672 C37.7784671,74.0355672 38.8184671,74.8145672 38.9784671,75.9345672 C39.1384671,77.0535672 38.3584671,78.0905672 37.2384671,78.2495672 C28.6484671,79.4775672 24.4284671,81.1105672 16.1084671,85.3965672 C15.0784671,90.0615672 14.7984671,94.4285672 15.0984671,98.5115672 L19.7784671,97.8695672 C20.8784671,97.7145672 21.9284671,98.4985672 22.0884671,99.6195672 C22.2384671,100.740567 21.4584671,101.771567 20.3384671,101.926567 L20.3384671,101.926567 Z" id="Fill-771" fill="#BA9C7B"></path>
            <path d="M43.2084671,138.151567 C43.3384671,138.366567 43.4384671,138.601567 43.4784671,138.853567 C43.5684671,139.432567 43.4084671,140.025567 43.0384671,140.480567 C42.8984671,140.654567 42.7684671,140.840567 42.6184671,141.016567 C46.2284671,143.257567 49.7784671,145.267567 53.2584671,147.061567 C96.9884671,169.558567 131.308467,158.254567 152.098467,147.121567 C156.128467,144.961567 159.658467,142.811567 162.638467,140.912567 C162.508467,140.745567 162.378467,140.569567 162.248467,140.404567 C161.868467,139.948567 161.708467,139.354567 161.808467,138.771567 C161.848467,138.496567 161.958467,138.237567 162.108467,138.007567 C112.958467,155.363567 88.9384671,153.753567 43.2084671,138.151567" id="Fill-772" fill="#96724D"></path>
            <path d="M166.368467,75.9345672 C166.208467,77.0535672 166.978467,78.0905672 168.098467,78.2495672 C176.698467,79.4765672 180.918467,81.1085672 189.228467,85.3935672 C189.098467,84.7865672 188.958467,84.1815672 188.798467,83.5645672 C188.778467,83.4535672 188.758467,83.3405672 188.748467,83.2265672 C188.668467,82.2815672 188.568467,81.3505672 188.468467,80.4195672 C181.428467,76.9305672 176.818467,75.3565672 168.678467,74.1965672 C167.558467,74.0335672 166.528467,74.8145672 166.368467,75.9345672" id="Fill-773" fill="#30190E"></path>
            <path d="M37.2384671,78.2495672 C38.3584671,78.0905672 39.1384671,77.0535672 38.9784671,75.9345672 C38.8184671,74.8145672 37.7784671,74.0355672 36.6684671,74.1965672 C28.5284671,75.3575672 23.9084671,76.9325672 16.8684671,80.4245672 C16.7684671,81.3535672 16.6684671,82.2825672 16.5884671,83.2265672 C16.5784671,83.3405672 16.5584671,83.4535672 16.5284671,83.5645672 C16.3784671,84.1825672 16.2384671,84.7895672 16.1084671,85.3965672 C24.4284671,81.1105672 28.6484671,79.4775672 37.2384671,78.2495672" id="Fill-774" fill="#30190E"></path>
            <path d="M72.7884671,40.4065672 C72.2784671,41.4155672 72.6784671,42.6465672 73.6884671,43.1565672 C73.9884671,43.3065672 74.2984671,43.3775672 74.6084671,43.3775672 C75.3584671,43.3775672 76.0784671,42.9665672 76.4384671,42.2545672 C79.4384671,36.3275672 82.5984671,17.6465672 81.2184671,10.3835672 C79.8884671,10.6255672 78.5884671,10.9035672 77.2884671,11.1895672 C78.1484671,15.5425672 76.0284671,34.0065672 72.7884671,40.4065672" id="Fill-775" fill="#30190E"></path>
            <path d="M128.908467,42.2545672 C129.268467,42.9665672 129.988467,43.3775672 130.728467,43.3775672 C131.048467,43.3775672 131.358467,43.3065672 131.658467,43.1565672 C132.668467,42.6465672 133.068467,41.4155672 132.558467,40.4065672 C129.318467,34.0055672 127.188467,15.5425672 128.058467,11.1915672 C126.758467,10.9055672 125.458467,10.6275672 124.128467,10.3855672 C122.748467,17.6495672 125.908467,36.3275672 128.908467,42.2545672" id="Fill-776" fill="#30190E"></path>
            <path d="M102.668467,47.1665672 C103.798467,47.1665672 104.718467,46.2505672 104.718467,45.1195672 L104.718467,8.42756721 C103.548467,8.42056721 101.798467,8.42056721 100.628467,8.42756721 L100.628467,45.1195672 C100.628467,46.2505672 101.538467,47.1665672 102.668467,47.1665672" id="Fill-777" fill="#30190E"></path>
            <path d="M65.5584671,113.290567 C68.5784671,117.962567 74.8784671,121.436567 82.1484671,118.659567 C92.1684671,114.834567 97.3084671,106.045567 99.4984671,102.293567 C100.598467,100.424567 101.348467,99.2875672 102.668467,99.2964212 C104.048467,99.2815672 104.748467,100.423567 105.848467,102.293567 C108.038467,106.045567 113.178467,114.834567 123.198467,118.659567 C130.468467,121.434567 136.768467,117.961567 139.778467,113.290567 C140.398467,112.340567 141.658467,112.068567 142.608467,112.682567 C143.558467,113.295567 143.838467,114.562567 143.218467,115.512567 C140.268467,120.077567 134.908467,123.762602 128.418467,123.762602 C126.298467,123.762602 124.058467,123.369567 121.738467,122.484567 C110.908467,118.350567 105.268467,109.384567 102.668467,104.979567 C100.078467,109.384567 94.4384671,118.350567 83.6084671,122.484567 C74.1984671,126.076567 66.0384671,121.569567 62.1284671,115.512567 C61.5084671,114.562567 61.7784671,113.295567 62.7284671,112.682567 C63.6784671,112.068567 64.9484671,112.340567 65.5584671,113.290567 Z M53.1484671,118.636567 C53.0884671,120.943567 53.4584671,123.303567 54.5584671,125.334567 C56.1784671,128.342567 59.1884671,130.322567 62.2084671,131.911567 C67.0584671,134.457567 84.2084671,139.152567 101.608467,139.204012 C119.718467,139.256567 138.088467,134.561567 143.128467,131.911567 C146.158467,130.322567 149.168467,128.342567 150.788467,125.334567 C151.878467,123.303567 152.248467,120.943567 152.188467,118.636567 C152.008467,111.514567 147.858467,104.925567 142.358467,100.391567 C134.938467,94.2645672 120.768467,87.5345672 109.928467,87.2175672 C108.888467,89.7405672 105.698467,91.5715672 102.428467,91.7065672 C99.5484671,91.4285672 96.1384671,89.7775672 95.2584671,87.2195672 C84.4384671,87.5985672 70.3684671,94.2945672 62.9784671,100.391567 C57.4884671,104.925567 53.3384671,111.514567 53.1484671,118.636567 L53.1484671,118.636567 Z" id="Fill-778" fill="#EAEBED"></path>
            <path d="M139.218467,73.1485672 C139.188467,71.6545672 138.678467,70.8205672 137.918467,70.4785672 C135.508467,69.3925672 130.608467,73.2465672 130.648467,76.7065672 C130.708467,82.4185672 139.318467,77.5115672 139.218467,73.1485672" id="Fill-779" fill="#FFFFFF"></path>
            <path d="M61.1884671,71.4015672 C61.1484671,69.9075672 60.6384671,69.0735672 59.8784671,68.7305672 C57.4684671,67.6455672 52.5684671,71.4995672 52.6084671,74.9595672 C52.6784671,80.6715672 61.2784671,75.7645672 61.1884671,71.4015672" id="Fill-780" fill="#FFFFFF"></path>
            <path d="M76.5484671,226.753567 C76.8384671,226.889567 77.1384671,226.954567 77.4284671,226.954567 C78.1984671,226.954567 78.9284671,226.524567 79.2784671,225.789567 C79.7684671,224.770567 79.3384671,223.547567 78.3184671,223.060567 C73.7384671,220.867567 69.0184671,219.820567 63.9684671,219.871567 C63.9684671,220.613567 63.9684671,221.331567 63.9584671,221.993567 C63.9484671,222.663567 63.7984671,223.322567 63.5484671,223.979567 C68.1884671,223.864567 72.3484671,224.744567 76.5484671,226.753567" id="Fill-781" fill="#30190E"></path>
            <path d="M76.7884671,206.952567 C77.6384671,206.952567 78.4284671,206.427567 78.7184671,205.586567 C79.0984671,204.521567 78.5384671,203.351567 77.4684671,202.975567 C72.7184671,201.294567 67.7584671,200.312567 62.7384671,199.979567 C62.8584671,201.355567 62.9784671,202.737567 63.0984671,204.111567 C67.5284671,204.460567 71.8984671,205.350567 76.1084671,206.835567 C76.3384671,206.915567 76.5684671,206.952567 76.7884671,206.952567" id="Fill-782" fill="#30190E"></path>
            <path d="M127.028467,223.060567 C126.008467,223.547567 125.578467,224.770567 126.058467,225.789567 C126.418467,226.524567 127.148467,226.954567 127.908467,226.954567 C128.208467,226.954567 128.508467,226.889567 128.788467,226.753567 C133.298467,224.599567 137.338467,223.687567 141.738467,223.800567 C141.538467,223.203567 141.398467,222.603567 141.388467,221.993567 C141.368467,221.279567 141.368467,220.500567 141.378467,219.694567 C136.488467,219.629567 131.998467,220.683567 127.028467,223.060567" id="Fill-783" fill="#30190E"></path>
            <path d="M126.628467,205.586567 C126.918467,206.428567 127.708467,206.952567 128.548467,206.952567 C128.778467,206.952567 129.008467,206.915567 129.238467,206.835567 C133.438467,205.350567 137.818467,204.460567 142.248467,204.111567 C142.368467,202.737567 142.478467,201.356567 142.608467,199.979567 C137.578467,200.312567 132.628467,201.295567 127.868467,202.975567 C126.808467,203.351567 126.248467,204.521567 126.628467,205.586567" id="Fill-784" fill="#30190E"></path>
            <path d="M42.4384671,20.8365672 C34.7884671,15.4845672 21.3184671,9.98356721 16.2284671,12.0985672 C14.8484671,12.6725672 14.8984671,31.4635672 22.8184671,44.4235672 C23.9884671,38.0595672 28.1284671,24.9675672 42.4384671,20.8365672" id="Fill-785" fill="#EFB9BF"></path>
            <path d="M42.4384671,20.8365672 C28.1284671,24.9675672 23.9884671,38.0595672 22.8184671,44.4235672 C23.8784671,46.1565672 25.0684671,47.7885672 26.4284671,49.2555672 L46.0784671,23.8085672 C45.1484671,22.8585672 43.8884671,21.8505672 42.4384671,20.8365672" id="Fill-786" fill="#C46A83"></path>
            <path d="M182.528467,44.4235672 C190.448467,31.4635672 190.498467,12.6725672 189.118467,12.0985672 C184.028467,9.98356721 170.558467,15.4845672 162.908467,20.8365672 C177.218467,24.9675672 181.358467,38.0595672 182.528467,44.4235672" id="Fill-787" fill="#EFB9BF"></path>
            <path d="M182.528467,44.4235672 C181.358467,38.0595672 177.218467,24.9675672 162.908467,20.8365672 C161.458467,21.8505672 160.198467,22.8585672 159.258467,23.8085672 L178.918467,49.2555672 C180.278467,47.7885672 181.468467,46.1565672 182.528467,44.4235672" id="Fill-788" fill="#C46A83"></path>
            <path d="M102.428467,91.7065672 C105.698467,91.5715672 108.888467,89.7405672 109.928467,87.2175672 C110.138467,86.7045672 110.288467,86.1735672 110.308467,85.6115672 C110.338467,84.3095672 107.728467,82.1165672 102.588467,82.1165672 C97.2084671,82.1165672 95.0884671,83.9865672 95.0384671,85.8545672 C95.0284671,86.3355672 95.1084671,86.7885672 95.2584671,87.2195672 C96.1384671,89.7775672 99.5484671,91.4285672 102.428467,91.7065672" id="Fill-789" fill="#231F20"></path>
            <path d="M62.1284671,115.512567 C66.0384671,121.569567 74.1984671,126.076567 83.6084671,122.484567 C94.4384671,118.350567 100.078467,109.384567 102.668467,104.979567 C105.268467,109.384567 110.908467,118.350567 121.738467,122.484567 C124.058467,123.369567 126.298467,123.762602 128.418467,123.762602 C134.908467,123.762602 140.268467,120.077567 143.218467,115.512567 C143.838467,114.562567 143.558467,113.295567 142.608467,112.682567 C141.658467,112.068567 140.398467,112.340567 139.778467,113.290567 C136.768467,117.961567 130.468467,121.434567 123.198467,118.659567 C113.178467,114.834567 108.038467,106.045567 105.848467,102.293567 C104.748467,100.423567 104.048467,99.2815672 102.668467,99.2964212 C101.348467,99.2875672 100.598467,100.424567 99.4984671,102.293567 C97.3084671,106.045567 92.1684671,114.834567 82.1484671,118.659567 C74.8784671,121.436567 68.5784671,117.962567 65.5584671,113.290567 C64.9484671,112.340567 63.6784671,112.068567 62.7284671,112.682567 C61.7784671,113.295567 61.5084671,114.562567 62.1284671,115.512567" id="Fill-790" fill="#231F20"></path>
            <path d="M137.918467,70.4785672 C138.678467,70.8205672 139.188467,71.6545672 139.218467,73.1485672 C139.318467,77.5115672 130.708467,82.4185672 130.648467,76.7065672 C130.608467,73.2465672 135.508467,69.3925672 137.918467,70.4785672 Z M142.628467,86.3415672 C151.978467,83.6775672 156.618467,75.7295672 155.718467,71.7705672 C154.258467,65.3375672 144.788467,65.2775672 138.958467,66.6165672 C133.888467,67.7775672 127.298467,72.8105672 127.368467,78.3675672 C127.468467,86.0265672 135.638467,88.3295672 142.628467,86.3415672 L142.628467,86.3415672 Z" id="Fill-791" fill="#231F20"></path>
            <path d="M52.6084671,74.9595672 C52.5684671,71.4995672 57.4684671,67.6455672 59.8784671,68.7305672 C60.6384671,69.0735672 61.1484671,69.9075672 61.1884671,71.4015672 C61.2784671,75.7645672 52.6784671,80.6715672 52.6084671,74.9595672 Z M62.7184671,86.3415672 C69.6984671,88.3295672 77.8684671,86.0265672 77.9684671,78.3675672 C78.0384671,72.8105672 71.4584671,67.7775672 66.3884671,66.6165672 C60.5484671,65.2775672 51.0884671,65.3375672 49.6284671,71.7705672 C48.7284671,75.7295672 53.3684671,83.6775672 62.7184671,86.3415672 L62.7184671,86.3415672 Z" id="Fill-792" fill="#231F20"></path>
            <path d="M201.368467,151.021567 C205.438467,154.365567 206.408467,160.946567 203.398467,164.827567 C202.188467,166.391567 200.458467,167.564567 198.618467,168.807567 C198.028467,169.211567 197.418467,169.627567 196.818467,170.061567 C196.278467,170.447567 195.748467,170.849567 195.228467,171.282567 C194.628467,171.784567 194.088467,172.316567 193.558467,172.861567 C189.688467,176.858567 187.598467,181.959567 185.998467,187.256567 C184.918467,186.866567 183.778467,186.541567 182.558467,186.296567 C181.818467,177.309567 180.278467,169.121567 177.948467,161.749567 C179.278467,156.784567 182.278467,152.593567 186.248467,150.285567 C191.078467,147.479567 197.438467,147.790567 201.368467,151.021567 Z M19.7784671,97.8695672 L15.0984671,98.5115672 C14.7984671,94.4285672 15.0784671,90.0615672 16.1084671,85.3965672 C16.2384671,84.7895672 16.3784671,84.1825672 16.5284671,83.5645672 C16.5584671,83.4535672 16.5784671,83.3405672 16.5884671,83.2265672 C16.6684671,82.2825672 16.7684671,81.3535672 16.8684671,80.4245672 C17.8384671,71.4835672 19.7584671,63.2085672 22.6184671,55.8045672 C22.8684671,55.1535672 22.7684671,54.4195672 22.3584671,53.8565672 C9.28846713,36.0215672 8.69846713,8.79556721 9.79846713,4.39256721 C17.6384671,2.11356721 40.1384671,11.5775672 50.3084671,20.2085672 C50.9684671,20.7675672 51.8984671,20.8535672 52.6484671,20.4235672 C59.8984671,16.2645672 68.1584671,13.2055672 77.2884671,11.1895672 C78.5884671,10.9035672 79.8884671,10.6255672 81.2184671,10.3835672 C86.9884671,9.33256721 93.0684671,8.66756721 99.4984671,8.44156721 C99.6684671,8.43556721 100.088467,8.43056721 100.628467,8.42756721 C101.798467,8.42056721 103.548467,8.42056721 104.718467,8.42756721 C105.248467,8.43156721 105.658467,8.43556721 105.838467,8.44156721 C112.268467,8.66756721 118.358467,9.33356721 124.128467,10.3855672 C125.458467,10.6275672 126.758467,10.9055672 128.058467,11.1915672 C137.178467,13.2085672 145.438467,16.2675672 152.688467,20.4275672 C153.438467,20.8555672 154.378467,20.7705672 155.038467,20.2115672 C165.198467,11.5785672 187.708467,2.11056721 195.538467,4.39256721 C196.648467,8.79756721 196.058467,36.0285672 182.978467,53.8645672 C182.568467,54.4275672 182.468467,55.1605672 182.718467,55.8115672 C185.578467,63.2125672 187.498467,71.4825672 188.468467,80.4195672 C188.568467,81.3505672 188.668467,82.2815672 188.748467,83.2265672 C188.758467,83.3405672 188.778467,83.4535672 188.798467,83.5645672 C188.958467,84.1815672 189.098467,84.7865672 189.228467,85.3935672 C190.258467,90.0605672 190.538467,94.4285672 190.238467,98.5115672 L185.568467,97.8695672 C184.468467,97.7155672 183.408467,98.4985672 183.258467,99.6195672 C183.108467,100.740567 183.888467,101.771567 185.008467,101.926567 L189.728467,102.572567 C189.138467,105.836567 188.178467,108.904567 186.908467,111.776567 L181.848467,109.436567 C180.828467,108.963567 179.608467,109.409567 179.128467,110.436567 C178.658467,111.462567 179.108467,112.678567 180.128467,113.153567 L185.078467,115.439567 C183.408467,118.410567 181.428467,121.150567 179.228467,123.673567 L175.838467,120.452567 C175.018467,119.674567 173.718467,119.708567 172.948467,120.528567 C172.168467,121.349567 172.198467,122.645567 173.018467,123.423567 L176.438467,126.668567 C172.178467,130.927567 167.398467,134.479567 162.748467,137.366567 C162.478467,137.530567 162.268467,137.751567 162.108467,138.007567 C161.958467,138.237567 161.848467,138.496567 161.808467,138.771567 C161.708467,139.354567 161.868467,139.948567 162.248467,140.404567 C162.378467,140.569567 162.508467,140.745567 162.638467,140.912567 C166.848467,146.154567 170.248467,152.341567 172.838467,159.422567 C173.308467,160.719567 173.758467,162.042567 174.178467,163.398567 C175.618467,168.024567 176.728467,172.999567 177.518467,178.309567 C177.718467,179.673567 177.898467,181.062567 178.058467,182.470567 C178.278467,184.341567 178.458467,186.239567 178.598467,188.189567 C178.668467,189.151567 179.398467,189.936567 180.358467,190.070567 C190.468467,191.501567 193.088467,198.007567 193.508467,203.213567 C194.038467,209.688567 191.328467,217.563567 187.318467,223.301567 C185.128467,219.426567 180.938467,216.664567 176.778467,216.060567 C173.008467,215.508567 169.438467,216.435567 166.988467,218.591567 C166.138467,219.338567 166.058467,220.631567 166.808467,221.479567 C167.548467,222.328567 168.848467,222.412567 169.698467,221.664567 C171.238467,220.302567 173.608467,219.738567 176.198467,220.111567 C180.508467,220.739567 185.088467,224.751567 184.758467,229.504567 C184.558467,232.333567 182.588467,235.224567 179.628467,237.049567 C175.368467,239.674567 169.508467,240.134567 163.538467,238.299567 C160.718467,237.433567 157.188467,235.768567 153.678467,233.846567 C152.938467,231.743567 151.158467,229.688567 149.278467,227.538567 C147.598467,225.615567 145.508467,223.221567 145.478467,221.907567 C145.298467,213.348567 146.958467,197.117567 148.048467,186.377567 C148.288467,183.994567 148.508467,181.882567 148.668467,180.182567 C148.778467,179.057567 147.948467,178.057567 146.828467,177.949567 C145.708467,177.841567 144.698467,178.667567 144.598467,179.794567 C144.428467,181.486567 144.218467,183.590567 143.978467,185.962567 C143.558467,190.075567 143.058467,194.986567 142.608467,199.979567 C142.478467,201.356567 142.368467,202.737567 142.248467,204.111567 C141.778467,209.822567 141.428467,215.366567 141.378467,219.694567 C141.368467,220.500567 141.368467,221.279567 141.388467,221.993567 C141.398467,222.603567 141.538467,223.203567 141.738467,223.800567 C142.468467,225.950567 144.288467,228.044567 146.198467,230.232567 C147.818467,232.091567 149.838467,234.402567 149.948467,235.705567 C150.158467,238.309567 149.768467,240.001567 148.658467,241.193567 C146.728467,243.286567 142.168467,244.305567 134.728467,244.305567 C134.648467,244.305567 134.568467,244.305567 134.488467,244.305567 C127.348467,244.283567 119.178467,242.080567 118.438467,238.557567 C117.328467,233.265567 117.378467,216.721567 117.428467,203.428567 C117.448467,197.439567 117.458467,191.782567 117.378467,187.686567 C117.358467,186.570567 116.448467,185.682567 115.328467,185.682567 C115.318467,185.682567 115.298467,185.682567 115.288467,185.682567 C114.158467,185.705567 113.258467,186.640567 113.288467,187.771567 C113.318467,189.261567 113.328467,190.970567 113.338467,192.827567 C113.358467,196.015567 113.338467,199.647567 113.328467,203.415567 C113.298467,213.666567 113.268467,224.884567 113.698467,232.486567 C107.278467,233.083567 98.1484671,233.055567 91.6484671,232.412567 C92.0784671,224.811567 92.0484671,213.633567 92.0184671,203.415567 C91.9984671,199.721567 91.9884671,196.156567 91.9984671,193.014567 C92.0084671,191.083567 92.0284671,189.311567 92.0584671,187.771567 C92.0784671,186.640567 91.1884671,185.705567 90.0584671,185.682567 C90.0384671,185.682567 90.0284671,185.682567 90.0084671,185.682567 C88.8984671,185.682567 87.9884671,186.570567 87.9684671,187.686567 C87.8784671,191.782567 87.8984671,197.439567 87.9184671,203.428567 C87.9584671,216.721567 88.0184671,233.265567 86.9084671,238.557567 C86.1684671,242.080567 77.9984671,244.283567 70.8584671,244.305567 C70.7784671,244.305567 70.6984671,244.305567 70.6184671,244.305567 C63.1784671,244.305567 58.6184671,243.286567 56.6784671,241.193567 C55.5784671,240.001567 55.1784671,238.309567 55.3984671,235.705567 C55.4984671,234.402567 57.5184671,232.091567 59.1484671,230.232567 C61.0084671,228.104567 62.7784671,226.065567 63.5484671,223.979567 C63.7984671,223.322567 63.9484671,222.663567 63.9584671,221.993567 C63.9684671,221.331567 63.9684671,220.613567 63.9684671,219.871567 C63.9284671,215.519567 63.5684671,209.898567 63.0984671,204.111567 C62.9784671,202.737567 62.8584671,201.355567 62.7384671,199.979567 C62.2884671,194.986567 61.7884671,190.075567 61.3684671,185.962567 C61.1284671,183.590567 60.9084671,181.486567 60.7484671,179.794567 C60.6484671,178.667567 59.6384671,177.840567 58.5184671,177.949567 C57.3984671,178.057567 56.5684671,179.057567 56.6784671,180.182567 C56.8384671,181.882567 57.0484671,183.994567 57.2984671,186.377567 C58.3884671,197.117567 60.0484671,213.348567 59.8684671,221.907567 C59.8384671,223.221567 57.7484671,225.615567 56.0584671,227.538567 C54.2684671,229.594567 52.5584671,231.563567 51.7684671,233.568567 C48.4984671,235.572567 45.2684671,237.235567 41.8084671,238.299567 C35.8384671,240.131567 29.9784671,239.674567 25.7084671,237.049567 C22.7484671,235.225567 20.7884671,232.333567 20.5884671,229.504567 C20.2484671,224.751567 24.8284671,220.739567 29.1484671,220.111567 C31.7284671,219.735567 34.0984671,220.302567 35.6484671,221.664567 C36.4984671,222.412567 37.7984671,222.329567 38.5384671,221.479567 C39.2884671,220.631567 39.1984671,219.338567 38.3584671,218.591567 C35.8984671,216.434567 32.3284671,215.511567 28.5684671,216.060567 C24.4084671,216.664567 20.2184671,219.425567 18.0284671,223.300567 C14.0184671,217.562567 11.3084671,209.688567 11.8284671,203.212567 C12.2584671,198.006567 14.8784671,191.501567 24.9884671,190.070567 C25.9384671,189.936567 26.6784671,189.151567 26.7384671,188.189567 C26.8784671,186.240567 27.0684671,184.341567 27.2784671,182.470567 C27.4384671,181.061567 27.6184671,179.673567 27.8284671,178.309567 C28.6184671,172.999567 29.7284671,168.024567 31.1584671,163.399567 C31.5784671,162.042567 32.0284671,160.719567 32.5084671,159.422567 C35.0784671,152.388567 38.4584671,146.237567 42.6184671,141.016567 C42.7684671,140.840567 42.8984671,140.654567 43.0384671,140.480567 C43.4084671,140.025567 43.5684671,139.432567 43.4784671,138.853567 C43.4384671,138.601567 43.3384671,138.366567 43.2084671,138.151567 C43.0484671,137.870567 42.8184671,137.625567 42.5384671,137.448567 C37.8984671,134.545567 33.1184671,130.976567 28.8684671,126.701567 L32.3284671,123.423567 C33.1484671,122.645567 33.1784671,121.349567 32.3984671,120.528567 C31.6284671,119.708567 30.3284671,119.674567 29.5084671,120.452567 L26.0884671,123.700567 C23.8984671,121.170567 21.9184671,118.424567 20.2484671,115.447567 L25.2184671,113.153567 C26.2384671,112.678567 26.6884671,111.462567 26.2084671,110.436567 C25.7384671,109.409567 24.5184671,108.963567 23.4984671,109.436567 L18.4184671,111.782567 C17.1484671,108.907567 16.1984671,105.837567 15.6084671,102.574567 L20.3384671,101.926567 C21.4584671,101.771567 22.2384671,100.740567 22.0884671,99.6195672 C21.9284671,98.4985672 20.8784671,97.7145672 19.7784671,97.8695672 Z M2.04846713,104.416567 C2.13846713,104.416567 2.23846713,104.409567 2.32846713,104.396567 L11.6384671,103.119567 C12.2684671,106.661567 13.3284671,110.110567 14.8084671,113.452567 L4.57846713,118.178567 C3.55846713,118.652567 3.10846713,119.869567 3.58846713,120.895567 C3.92846713,121.643567 4.66846713,122.084567 5.44846713,122.084567 C5.72846713,122.084567 6.02846713,122.022567 6.29846713,121.895567 L16.6184671,117.127567 C18.3884671,120.362567 20.5884671,123.477567 23.1684671,126.468567 L16.0584671,133.217567 C15.2384671,133.995567 15.1984671,135.291567 15.9784671,136.111567 C16.3784671,136.536567 16.9184671,136.749567 17.4684671,136.749567 C17.9684671,136.749567 18.4784671,136.563567 18.8784671,136.188567 L25.9484671,129.477567 C29.5084671,133.103567 33.6584671,136.527567 38.4484671,139.689567 C29.6384671,151.345567 24.3684671,167.004567 22.7784671,186.296567 C13.7984671,188.108567 8.47846713,193.946567 7.74846713,202.880567 C7.05846713,211.404567 10.9284671,221.444567 16.5284671,228.050567 C16.4784671,228.621567 16.4584671,229.201567 16.4984671,229.794567 C16.7984671,233.978567 19.4384671,237.993567 23.5684671,240.534567 C26.7484671,242.498567 30.6084671,243.498567 34.7284671,243.498567 C37.4084671,243.498567 40.2084671,243.072567 43.0084671,242.213567 C45.9084671,241.322567 48.6584671,240.045567 51.3384671,238.551567 C51.5884671,240.760567 52.3384671,242.529567 53.6784671,243.972567 C56.4984671,247.030567 61.7284671,248.399567 70.6184671,248.399567 C70.6984671,248.399567 70.7784671,248.399567 70.8684671,248.399567 C77.6184671,248.379567 89.4384671,246.459567 90.9184671,239.396567 C91.0784671,238.600567 91.2184671,237.586567 91.3384671,236.421567 C95.0384671,236.823567 99.3684671,237.039567 103.658467,237.039567 C107.288467,237.039567 110.868467,236.884567 114.018467,236.561567 C114.128467,237.668567 114.268467,238.631567 114.428467,239.396567 C115.908467,246.459567 127.728467,248.379567 134.478467,248.399567 C134.558467,248.399567 134.648467,248.399567 134.728467,248.399567 C143.608467,248.399567 148.838467,247.030567 151.668467,243.972567 C152.988467,242.548567 153.738467,240.805567 153.988467,238.634567 C156.968467,240.163567 159.888467,241.462567 162.338467,242.213567 C165.128467,243.072567 167.928467,243.498567 170.618467,243.498567 C174.738467,243.498567 178.588467,242.498567 181.778467,240.534567 C185.908467,237.991567 188.548467,233.976567 188.838467,229.793567 C188.878467,229.200567 188.858467,228.622567 188.808467,228.050567 C194.418467,221.445567 198.288467,211.404567 197.588467,202.881567 C197.088467,196.674567 194.368467,191.966567 189.738467,189.060567 C191.438467,183.288567 193.538467,178.050567 197.858467,174.418567 C198.798467,173.635567 199.828467,172.937567 200.918467,172.197567 C202.938467,170.829567 205.028467,169.414567 206.638467,167.334567 C210.998467,161.709567 209.748467,152.608567 203.968467,147.858567 C198.688467,143.511567 190.548467,143.053567 184.198467,146.744567 C180.688467,148.784567 177.798467,151.979567 175.848467,155.831567 C173.438467,149.779567 170.438467,144.358567 166.838467,139.614567 C171.638467,136.468567 175.788467,133.058567 179.368467,129.443567 L186.468467,136.188567 C186.868467,136.563567 187.378467,136.749567 187.878467,136.749567 C188.418467,136.749567 188.958467,136.536567 189.368467,136.111567 C190.138467,135.291567 190.108467,133.995567 189.288467,133.217567 L182.148467,126.440567 C184.728467,123.458567 186.938467,120.351567 188.708467,117.120567 L199.038467,121.895567 C199.318467,122.022567 199.608467,122.084567 199.898467,122.084567 C200.678467,122.084567 201.418467,121.643567 201.758467,120.895567 C202.238467,119.869567 201.788467,118.652567 200.758467,118.178567 L190.528467,113.447567 C192.008467,110.108567 193.068467,106.660567 193.698467,103.118567 L203.018467,104.396567 C203.108467,104.409567 203.198467,104.416567 203.298467,104.416567 C204.298467,104.416567 205.178467,103.672567 205.318467,102.646567 C205.478467,101.525567 204.688467,100.494567 203.568467,100.340567 L194.248467,99.0615672 C194.698467,93.7745672 194.228467,88.3075672 192.808467,82.7115672 C191.958467,72.7895672 189.988467,63.6005672 186.938467,55.3755672 C199.638467,37.2115672 201.228467,9.56056721 199.428467,3.10556721 C199.208467,2.34156721 198.798467,1.27356721 197.708467,0.821567207 C188.498467,-3.00343279 164.728467,7.27756721 153.498467,16.1815672 C140.398467,8.97556721 124.418467,4.99656721 105.978467,4.34956721 C105.148467,4.32156721 100.188467,4.32156721 99.3584671,4.34956721 C80.9184671,4.99656721 64.9484671,8.97456721 51.8484671,16.1785672 C40.6084671,7.27756721 16.8484671,-2.99843279 7.62846713,0.821567207 C6.54846713,1.27356721 6.13846713,2.34156721 5.91846713,3.10556721 C4.11846713,9.55756721 5.70846713,37.2015672 18.4084671,55.3675672 C15.3484671,63.5955672 13.3784671,72.7865672 12.5284671,82.7125672 C11.1084671,88.3055672 10.6384671,93.7725672 11.0984671,99.0615672 L1.76846713,100.340567 C0.648467129,100.494567 -0.131532871,101.525567 0.0184671291,102.646567 C0.158467129,103.672567 1.03846713,104.416567 2.04846713,104.416567 L2.04846713,104.416567 Z" id="Fill-793" fill="#231F20"></path>
        </g>
    </g>
</svg>