<?xml version="1.0" encoding="UTF-8"?>
<svg width="185px" height="256px" viewBox="0 0 185 256" version="1.1" xmlns="http://www.w3.org/2000/svg" xmlns:xlink="http://www.w3.org/1999/xlink">
    <title>Page 1</title>
    <g id="Page-1" stroke="none" stroke-width="1" fill="none" fill-rule="evenodd">
        <polygon id="Fill-1" fill="#FFFFFF" points="-2848.94 865 351 865 351 -734.96 -2848.94 -734.96"></polygon>
        <path d="M162.25,220.235 C164.38,219.011 166.4,217.586 168.24,215.804 C174.63,209.623 179.11,197.518 175.22,188.733 C175.01,188.265 174.78,187.774 174.54,187.264 C172.76,183.483 170.32,178.307 172.61,172.636 C173.23,171.117 172.21,169.549 171.75,168.945 C170.64,167.505 168.97,166.571 167.56,166.571 C167.43,166.571 167.31,166.579 167.19,166.594 C163.88,167.007 161.18,171.154 160.59,174.761 C159.72,180.097 162.13,184.687 164.27,188.736 C165.29,190.672 166.25,192.499 166.7,194.2 C168.28,200.154 165.99,206.281 160.41,211.184 C161.28,214.273 161.91,217.307 162.25,220.235" id="Fill-565" fill="#FFFFFF"></path>
        <path d="M59.06,162.469 C59.13,163.039 58.98,163.616 58.6,164.058 C43.88,181.133 24.74,212.754 29.8,231.56 C30.68,229.575 32.08,227.811 34.13,226.614 C37.12,224.871 41.05,224.641 44.65,225.994 C47.55,227.086 50.19,229.118 52.48,232.034 C53.18,232.923 53.03,234.21 52.14,234.908 C51.25,235.607 49.96,235.453 49.26,234.564 C47.44,232.245 45.4,230.65 43.21,229.826 C40.79,228.916 38.1,229.038 36.19,230.15 C32.91,232.068 32.22,236.486 32.96,239.779 C33.34,241.445 33.97,242.685 34.84,243.464 C35.6,244.15 36.7,244.656 38.4,245.105 C43.11,246.35 48.18,246.18 52.83,244.672 C53.2,242.473 54.5,240.187 56.71,238.075 C57.26,237.553 57.84,237.044 58.42,236.533 C60.28,234.896 62.03,233.35 62.63,231.486 C63,230.299 62.93,228.85 62.85,227.447 L60.96,191.311 C60.9,190.182 61.77,189.219 62.9,189.159 C64.07,189.116 64.99,189.967 65.05,191.097 L66.94,227.232 C67.03,228.92 67.13,230.831 66.53,232.731 C65.59,235.672 63.22,237.761 61.13,239.604 C60.59,240.08 60.05,240.554 59.54,241.04 C58.9,241.646 55.79,244.795 57.12,247.226 C58.26,249.331 61.94,250.058 65.02,250.455 C69.04,250.975 72.37,251.329 75.59,250.783 C78.96,250.214 81.65,248.548 82.61,246.435 C83.24,245.049 83.24,243.301 83.25,241.61 L83.38,202.537 C83.38,201.408 84.3,200.496 85.42,200.496 L85.43,200.496 C86.56,200.499 87.48,201.419 87.47,202.549 L87.43,213.744 C90.22,214.394 96.85,215.6 103.04,214.242 L103,202.55 C103,201.42 103.91,200.5 105.04,200.496 L105.05,200.496 C106.18,200.496 107.09,201.408 107.1,202.536 L107.22,241.61 C107.23,243.301 107.23,245.049 107.86,246.435 C108.82,248.548 111.51,250.214 114.88,250.783 C118.1,251.326 121.43,250.975 125.45,250.455 C128.53,250.058 132.21,249.331 133.36,247.226 C134.68,244.795 131.57,241.646 130.93,241.039 C130.42,240.553 129.88,240.077 129.34,239.602 C127.25,237.759 124.88,235.67 123.95,232.731 C123.34,230.835 123.44,228.921 123.53,227.232 L125.42,191.097 C125.48,189.967 126.43,189.115 127.58,189.159 C128.7,189.219 129.57,190.182 129.51,191.311 L127.62,227.447 C127.55,228.851 127.47,230.303 127.85,231.486 C128.44,233.348 130.19,234.894 132.05,236.53 C132.63,237.041 133.21,237.553 133.76,238.075 C135.98,240.187 137.28,242.473 137.65,244.673 C142.29,246.181 147.36,246.352 152.08,245.104 C153.78,244.657 154.87,244.15 155.64,243.464 C156.5,242.686 157.13,241.446 157.51,239.781 C158.26,236.486 157.56,232.068 154.28,230.15 C152.37,229.038 149.68,228.916 147.26,229.826 C145.07,230.651 143.03,232.245 141.21,234.564 C140.51,235.452 139.23,235.607 138.34,234.909 C137.45,234.211 137.29,232.924 137.99,232.034 C140.28,229.119 142.92,227.087 145.82,225.994 C149.42,224.641 153.35,224.871 156.34,226.614 C157.07,227.038 157.71,227.54 158.28,228.091 C160.04,210.642 145.32,183.108 128.89,164.058 C128.58,163.696 128.42,163.241 128.4,162.775 C120.86,169.987 93.16,191.818 59.06,162.469" id="Fill-566" fill="#FFFFFF"></path>
        <path d="M157.55,39.643 C156.89,41.605 156.11,43.366 155.17,44.769 C155.17,44.769 141.5,33.582 136.94,33.167 C136.94,33.167 138.32,31.468 140.57,29.06 C145.03,24.3 152.99,16.721 160.97,13.694 C160.97,13.694 160.97,29.433 157.55,39.643 Z M120.02,93.217 C119.71,84.97 123.3,80.806 128.27,79.691 C131.2,79.033 134.29,80.239 136.68,83.825 C147.08,99.46 120.91,117.284 120.02,93.217 Z M119.2,128.012 C118.5,128.186 117.81,128.254 117.14,128.254 C115.9,128.254 114.71,128.021 113.64,127.783 C110.38,127.053 107.15,126.066 104.04,124.85 C103.51,124.639 102.97,124.42 102.43,124.201 C99.63,123.064 96.98,121.988 94.31,121.988 C94.26,121.988 94.22,121.989 94.17,121.989 C91.38,122.027 88.48,123.326 85.93,124.472 C82.97,125.803 79.62,127.311 75.93,127.394 C72.12,127.486 67.61,125.71 65.92,121.565 C65.46,120.408 66.01,119.09 67.17,118.62 C68.32,118.146 69.64,118.708 70.11,119.864 C70.94,121.904 73.58,122.958 75.83,122.873 C78.6,122.811 81.39,121.559 84.08,120.348 C86.89,119.088 90.38,117.519 94.12,117.469 C97.71,117.362 100.99,118.737 104.13,120.012 C104.65,120.225 105.17,120.436 105.69,120.639 C108.59,121.771 111.59,122.691 114.63,123.37 C115.83,123.639 117.09,123.881 118.1,123.624 C118.81,123.447 119.34,122.928 119.37,122.572 C119.47,121.329 120.56,120.403 121.8,120.495 C123.04,120.593 123.97,121.682 123.88,122.926 C123.69,125.279 121.77,127.371 119.2,128.012 Z M52.96,83.825 C55.35,80.239 58.44,79.033 61.38,79.691 C66.34,80.806 69.93,84.97 69.62,93.217 C68.73,117.284 42.56,99.46 52.96,83.825 Z M32.2,44.769 C31.27,43.366 30.49,41.605 29.83,39.643 C26.4,29.433 26.4,13.694 26.4,13.694 C34.38,16.721 42.34,24.3 46.8,29.06 C49.06,31.468 50.43,33.167 50.43,33.167 C45.88,33.582 32.2,44.769 32.2,44.769 Z M87.75,103.628 C88.63,101.755 95.18,101.635 99.02,102.265 C100.21,102.46 101.15,102.729 101.57,103.039 C101.83,103.236 102.1,103.503 102.1,103.836 C102.1,104.064 101.97,104.271 101.84,104.46 C100.02,107.117 96.96,109.072 93.74,108.961 C91.62,108.888 86.41,106.5 87.75,103.628 Z M166.33,111.203 C168.15,110.799 170.26,110.43 172.41,110.11 C174.69,92.627 169.16,76.426 163.37,59.48 C162.59,57.183 161.8,54.87 161.02,52.535 C160.88,52.114 160.88,51.66 161.02,51.239 C166.17,35.786 168.52,7.306 165.74,4.399 L165.74,4.4 C165.7,4.401 164.85,4.117 162.24,5.097 C152.37,8.823 132.96,24.75 130.78,30.918 C130.59,31.455 130.18,31.888 129.66,32.114 C129.14,32.341 128.549999,32.34 128.03,32.112 C115.04,26.429 106.049999,24.458 93.77,24.581 C81.41,24.492 72.46,26.43 59.46,32.112 C58.94,32.338 58.35,32.339 57.82,32.114 C57.3,31.888 56.9,31.454 56.71,30.918 C54.53,24.751 35.13,8.824 25.25,5.098 C22.5,4.063 21.71,4.435 21.7,4.438 C18.97,7.295 21.32,35.784 26.47,51.239 C26.61,51.66 26.61,52.114 26.47,52.535 C25.69,54.87 24.9,57.183 24.12,59.48 C18.28,76.561 12.71,92.885 15.13,110.519 C16.38,110.733 17.58,110.961 18.67,111.203 C19.89,111.473 20.65,112.674 20.38,113.888 C20.15,114.937 19.22,115.65 18.19,115.65 C18.03,115.65 17.86,115.633 17.7,115.597 C17.17,115.479 16.58,115.359 15.96,115.242 C16.54,117.885 17.31,120.562 18.29,123.277 C19.4,123.133 20.5,123.02 21.56,122.987 C22.84,122.955 23.84,123.927 23.88,125.169 C23.92,126.411 22.94,127.447 21.7,127.486 C21.16,127.502 20.6,127.549 20.04,127.603 C21.19,130.138 22.56,132.601 24.14,134.975 C25.09,134.479 26,134.03 26.8,133.701 C27.95,133.229 29.26,133.773 29.74,134.922 C30.21,136.07 29.66,137.387 28.52,137.861 C28,138.076 27.42,138.345 26.81,138.648 C34.19,148.012 44.88,155.754 57.79,160.814 C58.03,160.908 58.24,161.055 58.42,161.224 C65.3,163.828 97.34,174.497 129.02,161.271 C129.21,161.079 129.44,160.917 129.7,160.814 C142.19,155.92 152.59,148.515 159.93,139.569 C158.67,138.865 157.49,138.273 156.49,137.861 C155.34,137.387 154.79,136.07 155.27,134.922 C155.74,133.774 157.049999,133.229 158.21,133.701 C159.5,134.235 161.049999,135.036 162.67,135.966 C164.47,133.379 166.02,130.683 167.31,127.897 C165.93,127.675 164.58,127.524 163.3,127.486 C162.06,127.447 161.09,126.411 161.13,125.169 C161.16,123.927 162.24,122.955 163.44,122.987 C165.25,123.042 167.15,123.295 169.07,123.645 C170.17,120.649 171.01,117.703 171.62,114.795 C170.03,115.052 168.54,115.323 167.3,115.597 C167.14,115.633 166.98,115.65 166.81,115.65 C165.78,115.65 164.85,114.937 164.62,113.888 C164.35,112.674 165.12,111.473 166.33,111.203 L166.33,111.203 Z" id="Fill-567" fill="#FFFFFF"></path>
        <path d="M58.42,161.224 C58.71,161.492 58.93,161.833 59.03,162.229 C59.05,162.309 59.05,162.389 59.06,162.469 C93.16,191.818 120.86,169.987 128.4,162.775 C128.4,162.593 128.41,162.41 128.46,162.229 C128.55,161.857 128.75,161.533 129.02,161.271 C97.34,174.497 65.3,163.828 58.42,161.224" id="Fill-568" fill="#BFBFBF"></path>
        <path d="M87.43,213.744 L87.34,241.623 C87.34,242.403 87.34,243.226 87.28,244.064 L103.2,244.064 C103.14,243.226 103.13,242.403 103.13,241.623 L103.04,214.242 C96.85,215.6 90.22,214.394 87.43,213.744" id="Fill-569" fill="#BFBFBF"></path>
        <path d="M53.71,90.316 C53.3,93.884 55.23,97.581 58.05,94.564 C59.31,93.211 59.75,91.063 59.78,89.043 C59.8,87.939 59.7,86.788 59.22,85.845 C56.83,81.166 54.07,87.182 53.71,90.316" id="Fill-570" fill="#FFFFFF"></path>
        <path d="M29.83,39.643 C30.49,41.605 31.27,43.366 32.2,44.769 C32.2,44.769 45.88,33.582 50.43,33.167 C50.43,33.167 49.06,31.468 46.8,29.06 C38.52,30.817 32.82,35.988 29.83,39.643" id="Fill-571" fill="#D3979C"></path>
        <path d="M46.8,29.06 C42.34,24.3 34.38,16.721 26.4,13.694 C26.4,13.694 26.4,29.433 29.83,39.643 C32.82,35.988 38.52,30.817 46.8,29.06" id="Fill-572" fill="#F4BABE"></path>
        <path d="M140.57,29.06 C138.32,31.468 136.94,33.167 136.94,33.167 C141.5,33.582 155.17,44.769 155.17,44.769 C156.11,43.366 156.89,41.605 157.55,39.643 C154.55,35.988 148.86,30.817 140.57,29.06" id="Fill-573" fill="#D3979C"></path>
        <path d="M140.57,29.06 C148.86,30.817 154.55,35.988 157.55,39.643 C160.97,29.433 160.97,13.694 160.97,13.694 C152.99,16.721 145.03,24.3 140.57,29.06" id="Fill-574" fill="#F4BABE"></path>
        <path d="M123.13,89.969 C122.72,93.536 124.65,97.233 127.47,94.217 C128.73,92.863 129.17,90.716 129.2,88.694 C129.22,87.591 129.12,86.44 128.64,85.497 C126.25,80.817 123.49,86.834 123.13,89.969" id="Fill-575" fill="#FFFFFF"></path>
        <path d="M166.7,194.2 C166.25,192.499 165.29,190.672 164.27,188.736 C162.13,184.687 159.72,180.097 160.59,174.761 C161.18,171.154 163.88,167.007 167.19,166.594 C167.31,166.579 167.43,166.571 167.56,166.571 C168.97,166.571 170.64,167.505 171.75,168.945 C172.21,169.549 173.23,171.117 172.61,172.636 C170.32,178.307 172.76,183.483 174.54,187.264 C174.78,187.774 175.01,188.265 175.22,188.733 C179.11,197.518 174.63,209.623 168.24,215.804 C166.4,217.586 164.38,219.011 162.25,220.235 C161.91,217.307 161.28,214.273 160.41,211.184 C165.99,206.281 168.28,200.154 166.7,194.2 Z M164.62,113.888 C164.85,114.937 165.78,115.65 166.81,115.65 C166.98,115.65 167.14,115.633 167.3,115.597 C168.54,115.323 170.03,115.052 171.62,114.795 C171.01,117.703 170.17,120.649 169.07,123.645 C167.15,123.295 165.25,123.042 163.44,122.987 C162.24,122.955 161.16,123.927 161.13,125.169 C161.09,126.411 162.06,127.447 163.3,127.486 C164.58,127.524 165.93,127.675 167.31,127.897 C166.02,130.683 164.47,133.379 162.67,135.966 C161.049999,135.036 159.5,134.235 158.21,133.701 C157.049999,133.229 155.74,133.774 155.27,134.922 C154.79,136.07 155.34,137.387 156.49,137.861 C157.49,138.273 158.67,138.865 159.93,139.569 C152.59,148.515 142.19,155.92 129.7,160.814 C129.44,160.917 129.21,161.079 129.02,161.271 C128.75,161.533 128.549999,161.857 128.46,162.229 C128.41,162.41 128.4,162.593 128.4,162.775 C128.42,163.241 128.58,163.696 128.89,164.058 C145.32,183.108 160.04,210.642 158.28,228.091 C157.71,227.54 157.07,227.038 156.34,226.614 C153.35,224.871 149.42,224.641 145.82,225.994 C142.92,227.087 140.28,229.119 137.99,232.034 C137.29,232.924 137.45,234.211 138.34,234.909 C139.23,235.607 140.51,235.452 141.21,234.564 C143.03,232.245 145.07,230.651 147.26,229.826 C149.68,228.916 152.37,229.038 154.28,230.15 C157.56,232.068 158.26,236.486 157.51,239.781 C157.13,241.446 156.5,242.686 155.64,243.464 C154.87,244.15 153.78,244.657 152.08,245.104 C147.36,246.352 142.29,246.181 137.65,244.673 C137.28,242.473 135.98,240.187 133.76,238.075 C133.21,237.553 132.63,237.041 132.049999,236.53 C130.19,234.894 128.44,233.348 127.85,231.486 C127.47,230.303 127.549999,228.851 127.62,227.447 L129.51,191.311 C129.57,190.182 128.7,189.219 127.58,189.159 C126.43,189.115 125.48,189.967 125.42,191.097 L123.53,227.232 C123.44,228.921 123.34,230.835 123.95,232.731 C124.88,235.67 127.25,237.759 129.34,239.602 C129.88,240.077 130.42,240.553 130.93,241.039 C131.57,241.646 134.68,244.795 133.36,247.226 C132.21,249.331 128.53,250.058 125.45,250.455 C121.43,250.975 118.1,251.326 114.88,250.783 C111.51,250.214 108.82,248.548 107.86,246.435 C107.23,245.049 107.23,243.301 107.22,241.61 L107.1,202.536 C107.09,201.408 106.18,200.496 105.049999,200.496 L105.04,200.496 C103.91,200.5 103,201.42 103,202.55 L103.13,241.623 C103.13,242.403 103.14,243.226 103.2,244.064 L87.28,244.064 C87.34,243.226 87.34,242.403 87.34,241.623 L87.47,202.549 C87.48,201.419 86.56,200.499 85.43,200.496 L85.42,200.496 C84.3,200.496 83.38,201.408 83.38,202.537 L83.25,241.61 C83.24,243.301 83.24,245.049 82.61,246.435 C81.65,248.548 78.96,250.214 75.59,250.783 C72.37,251.329 69.04,250.975 65.02,250.455 C61.94,250.058 58.26,249.331 57.12,247.226 C55.79,244.795 58.9,241.646 59.54,241.04 C60.0499993,240.554 60.59,240.08 61.13,239.604 C63.22,237.761 65.59,235.672 66.53,232.731 C67.13,230.831 67.03,228.92 66.94,227.232 L65.0499993,191.097 C64.99,189.967 64.07,189.116 62.9,189.159 C61.77,189.219 60.9,190.182 60.96,191.311 L62.85,227.447 C62.93,228.85 63,230.299 62.63,231.486 C62.03,233.35 60.28,234.896 58.42,236.533 C57.84,237.044 57.26,237.553 56.71,238.075 C54.5,240.187 53.2,242.473 52.83,244.672 C48.18,246.18 43.11,246.35 38.4,245.105 C36.7,244.656 35.6,244.15 34.84,243.464 C33.97,242.685 33.34,241.445 32.96,239.779 C32.22,236.486 32.91,232.068 36.19,230.15 C38.1,229.038 40.79,228.916 43.21,229.826 C45.4,230.65 47.44,232.245 49.26,234.564 C49.96,235.453 51.25,235.607 52.14,234.908 C53.03,234.21 53.18,232.923 52.48,232.034 C50.19,229.118 47.5499993,227.086 44.65,225.994 C41.0499993,224.641 37.12,224.871 34.13,226.614 C32.08,227.811 30.68,229.575 29.8,231.56 C24.74,212.754 43.88,181.133 58.6,164.058 C58.98,163.616 59.13,163.039 59.06,162.469 C59.0499993,162.389 59.0499993,162.309 59.03,162.229 C58.93,161.833 58.71,161.492 58.42,161.224 C58.24,161.055 58.03,160.908 57.79,160.814 C44.88,155.754 34.19,148.012 26.81,138.648 C27.42,138.345 28,138.076 28.52,137.861 C29.66,137.387 30.21,136.07 29.74,134.922 C29.26,133.773 27.95,133.229 26.8,133.701 C26,134.03 25.09,134.479 24.14,134.975 C22.56,132.601 21.19,130.138 20.04,127.603 C20.6,127.549 21.16,127.502 21.7,127.486 C22.94,127.447 23.92,126.411 23.88,125.169 C23.84,123.927 22.84,122.955 21.56,122.987 C20.5,123.02 19.4,123.133 18.29,123.277 C17.31,120.562 16.54,117.885 15.96,115.242 C16.58,115.359 17.17,115.479 17.7,115.597 C17.86,115.633 18.03,115.65 18.19,115.65 C19.22,115.65 20.15,114.937 20.38,113.888 C20.65,112.674 19.89,111.473 18.67,111.203 C17.58,110.961 16.38,110.733 15.13,110.519 C12.71,92.885 18.28,76.561 24.12,59.48 C24.9,57.183 25.69,54.87 26.47,52.535 C26.61,52.114 26.61,51.66 26.47,51.239 C21.32,35.784 18.97,7.295 21.7,4.438 C21.71,4.435 22.5,4.063 25.25,5.098 C35.13,8.824 54.53,24.751 56.71,30.918 C56.9,31.454 57.3,31.888 57.82,32.114 C58.35,32.339 58.94,32.338 59.46,32.112 C72.46,26.43 81.41,24.492 93.77,24.581 C106.049999,24.458 115.04,26.429 128.03,32.112 C128.549999,32.34 129.14,32.341 129.66,32.114 C130.18,31.888 130.59,31.455 130.78,30.918 C132.96,24.75 152.37,8.823 162.24,5.097 C164.85,4.117 165.7,4.401 165.74,4.4 L165.74,4.399 C168.52,7.306 166.17,35.786 161.02,51.239 C160.88,51.66 160.88,52.114 161.02,52.535 C161.8,54.87 162.59,57.183 163.37,59.48 C169.16,76.426 174.69,92.627 172.41,110.11 C170.26,110.43 168.15,110.799 166.33,111.203 C165.12,111.473 164.35,112.674 164.62,113.888 Z M182.8,113.505 C184.05,113.428 184.99,112.361 184.91,111.121 C184.84,109.882 183.81,108.961 182.53,109.013 C180.86,109.115 178.81,109.303 176.63,109.555 C178.69,91.67 173.1,75.28 167.25,58.156 C166.54,56.078 165.82,53.987 165.11,51.878 C169.18,39.065 174.31,5.402 168.13,1.08 C166.68,0.068 164.62,0.009 161.83,0.905 C151.96,4.067 132.91,19.312 127.89,27.593 C115.24,22.241 106.14,20.343 93.77,20.487 C81.37,20.353 72.25,22.241 59.6,27.593 C54.58,19.313 35.53,4.069 25.66,0.906 C22.87,0.009 20.81,0.068 19.36,1.08 C13.18,5.402 18.31,39.065 22.38,51.878 C21.67,53.987 20.95,56.078 20.24,58.156 C14.36,75.385 8.72,91.869 10.89,109.873 C7.81,109.459 4.78,109.154 2.47,109.013 C1.2,108.963 0.17,109.882 0.09,111.121 C0.01,112.361 0.96,113.428 2.2,113.505 C5,113.676 8.43,114.058 11.62,114.523 C12.22,117.623 13.07,120.774 14.2,123.984 C10.52,124.771 6.9,125.874 3.92,126.784 L2.75,127.142 C1.56,127.503 0.89,128.76 1.25,129.948 C1.55,130.92 2.44,131.545 3.41,131.545 C3.62,131.545 3.84,131.514 4.06,131.447 L5.24,131.087 C8.31,130.146 12.12,128.988 15.83,128.24 C17.13,131.265 18.71,134.194 20.57,137.007 C17.09,139.139 13.49,141.73 11.26,143.827 C10.36,144.679 10.32,146.104 11.17,147.008 C11.61,147.479 12.21,147.716 12.81,147.716 C13.36,147.716 13.91,147.514 14.35,147.104 C16.42,145.153 19.91,142.658 23.2,140.663 C30.53,150.174 41.01,158.126 53.67,163.549 C36.44,184.355 16.61,219.963 28.53,238.891 C28.58,238.968 28.65,239.021 28.71,239.091 C28.77,239.637 28.85,240.172 28.97,240.685 C29.54,243.191 30.59,245.15 32.1,246.509 C33.73,247.975 35.76,248.645 37.35,249.064 C39.8,249.712 42.34,250.033 44.88,250.033 C47.75,250.033 50.61,249.61 53.36,248.797 C53.42,248.925 53.45,249.06 53.52,249.186 C55.54,252.895 60.2,253.962 64.5,254.517 C66.76,254.808 69.38,255.146 72.08,255.146 C73.47,255.146 74.88,255.057 76.28,254.821 C81.02,254.019 84.77,251.527 86.32,248.158 L104.15,248.158 C105.7,251.527 109.45,254.019 114.2,254.821 C115.59,255.057 117,255.146 118.4,255.146 C121.09,255.146 123.72,254.808 125.98,254.517 C130.27,253.962 134.93,252.895 136.95,249.186 C137.02,249.06 137.05,248.925 137.11,248.797 C139.86,249.61 142.73,250.033 145.59,250.033 C148.13,250.033 150.67,249.711 153.12,249.063 C154.71,248.644 156.74,247.975 158.37,246.509 C159.88,245.153 160.94,243.193 161.5,240.686 C162,238.494 162,235.935 161.37,233.523 C162.19,230.805 162.56,227.865 162.54,224.761 C165.59,223.203 168.48,221.271 171.09,218.746 C178.63,211.452 183.63,197.611 178.96,187.074 C178.74,186.579 178.5,186.061 178.25,185.521 C176.63,182.08 174.79,178.182 176.41,174.169 C177.39,171.755 176.86,168.869 175,166.449 C172.88,163.703 169.63,162.166 166.68,162.531 C161.22,163.212 157.39,168.999 156.55,174.099 C155.46,180.789 158.33,186.254 160.65,190.645 C161.59,192.443 162.41,193.996 162.74,195.249 C163.78,199.146 162.41,203.236 159.04,206.797 C153.69,191.225 143.13,174.822 133.82,163.549 C146.01,158.326 156.18,150.754 163.47,141.709 C166.23,143.485 168.93,145.48 170.65,147.104 C171.09,147.513 171.64,147.716 172.2,147.716 C172.79,147.716 173.39,147.479 173.83,147.008 C174.69,146.104 174.64,144.68 173.74,143.827 C171.88,142.078 169.07,139.981 166.17,138.096 C168.24,135.104 170.01,131.98 171.44,128.74 C174.4,129.45 177.32,130.338 179.76,131.087 L180.94,131.447 C181.16,131.514 181.38,131.545 181.6,131.545 C182.56,131.545 183.46,130.92 183.75,129.948 C184.11,128.76 183.44,127.503 182.25,127.142 L181.08,126.784 C178.73,126.065 175.97,125.226 173.1,124.515 C174.36,121.001 175.3,117.559 175.94,114.177 C178.34,113.874 180.74,113.631 182.8,113.505 L182.8,113.505 Z" id="Fill-576" fill="#231F20"></path>
        <path d="M93.74,108.961 C96.96,109.072 100.02,107.117 101.84,104.46 C101.97,104.271 102.1,104.064 102.1,103.836 C102.1,103.503 101.83,103.236 101.57,103.039 C101.15,102.729 100.21,102.46 99.02,102.265 C95.18,101.635 88.63,101.755 87.75,103.628 C86.41,106.5 91.62,108.888 93.74,108.961" id="Fill-577" fill="#231F20"></path>
        <path d="M121.8,120.495 C120.56,120.403 119.47,121.329 119.37,122.572 C119.34,122.928 118.81,123.447 118.1,123.624 C117.09,123.881 115.83,123.639 114.63,123.37 C111.59,122.691 108.59,121.771 105.69,120.639 C105.17,120.436 104.65,120.225 104.13,120.012 C100.99,118.737 97.71,117.362 94.12,117.469 C90.38,117.519 86.89,119.088 84.08,120.348 C81.39,121.559 78.6,122.811 75.83,122.873 C73.58,122.958 70.94,121.904 70.11,119.864 C69.64,118.708 68.32,118.146 67.17,118.62 C66.01,119.09 65.46,120.408 65.92,121.565 C67.61,125.71 72.12,127.486 75.93,127.394 C79.62,127.311 82.97,125.803 85.93,124.472 C88.48,123.326 91.38,122.027 94.17,121.989 C94.22,121.989 94.26,121.988 94.31,121.988 C96.98,121.988 99.63,123.064 102.43,124.201 C102.97,124.42 103.51,124.639 104.04,124.85 C107.15,126.066 110.38,127.053 113.64,127.783 C114.71,128.021 115.9,128.254 117.14,128.254 C117.81,128.254 118.5,128.186 119.2,128.012 C121.77,127.371 123.69,125.279 123.88,122.926 C123.97,121.682 123.04,120.593 121.8,120.495" id="Fill-578" fill="#231F20"></path>
        <path d="M58.05,94.564 C55.23,97.581 53.3,93.884 53.71,90.316 C54.07,87.182 56.83,81.166 59.22,85.845 C59.7,86.788 59.8,87.939 59.78,89.043 C59.75,91.063 59.31,93.211 58.05,94.564 Z M69.62,93.217 C69.93,84.97 66.34,80.806 61.38,79.691 C58.44,79.033 55.35,80.239 52.96,83.825 C42.56,99.46 68.73,117.284 69.62,93.217 L69.62,93.217 Z" id="Fill-579" fill="#231F20"></path>
        <path d="M127.47,94.217 C124.65,97.233 122.72,93.536 123.13,89.969 C123.49,86.834 126.25,80.817 128.64,85.497 C129.12,86.44 129.22,87.591 129.2,88.694 C129.17,90.716 128.73,92.863 127.47,94.217 Z M128.27,79.691 C123.3,80.806 119.71,84.97 120.02,93.217 C120.91,117.284 147.08,99.46 136.68,83.825 C134.29,80.239 131.2,79.033 128.27,79.691 L128.27,79.691 Z" id="Fill-580" fill="#231F20"></path>
    </g>
</svg>