<?xml version="1.0" encoding="UTF-8"?>
<svg width="196px" height="266px" viewBox="0 0 196 266" version="1.1" xmlns="http://www.w3.org/2000/svg" xmlns:xlink="http://www.w3.org/1999/xlink">
    <title>Page 1</title>
    <g id="Page-1" stroke="none" stroke-width="1" fill="none" fill-rule="evenodd">
        <polygon id="Fill-1" fill="#FFFFFF" points="-155.94 875 3044 875 3044 -724.96 -155.94 -724.96"></polygon>
        <g id="Group-4" transform="translate(0.190520, 0.788800)">
            <path d="M160.38448,182.4692 C161.98148,189.3212 162.99248,196.4262 163.40048,203.6392 C164.51748,203.2222 165.75848,203.0142 167.05948,203.0422 C167.70548,203.0552 168.34748,203.1412 168.98248,203.2612 C171.88348,196.1092 175.96048,188.4182 181.18348,180.2622 C181.26448,180.1332 181.35348,179.9982 181.43548,179.8682 C177.08848,175.7162 170.57348,171.9392 164.33048,171.2522 C164.24248,171.4682 164.15648,171.6752 164.06748,171.8972 C162.95548,174.6562 161.61148,178.1362 160.25248,181.9552 C160.29348,182.1292 160.34448,182.2952 160.38448,182.4692" id="Fill-661" fill="#FCFCFC"></path>
            <path d="M184.35148,175.4322 C187.25948,171.1712 189.77348,164.3302 188.41848,159.3732 C187.80548,157.1252 186.47248,155.5482 184.34248,154.5502 C183.23448,154.0292 182.08148,153.7712 180.89148,153.7712 C179.80148,153.7712 178.68348,153.9862 177.54048,154.4212 C173.10348,156.1052 168.75148,160.8562 166.18348,166.8202 C165.65448,168.0632 165.01648,169.5692 164.33048,171.2522 C170.57348,171.9392 177.08848,175.7162 181.43548,179.8682 C182.35248,178.4282 183.31848,176.9402 184.35148,175.4322" id="Fill-662" fill="#E28B3D"></path>
            <path d="M57.4774797,145.8272 C56.5994797,147.0102 55.7494797,148.2122 54.9214797,149.4292 C77.6154797,160.4282 58.9554797,183.0232 40.7504797,178.9812 C40.2314797,180.6702 39.7674797,182.3742 39.3304797,184.0852 C42.9844797,187.1892 46.1784797,191.5782 47.9824797,194.7192 C50.4934797,199.1002 51.7024797,204.5022 50.0594797,209.2802 C48.4344797,214.0772 43.4864797,217.8552 38.4814797,217.1172 C38.2544797,223.4632 31.7584797,228.3552 25.4124797,228.2982 C23.2264797,228.2682 21.1344797,227.7742 19.1624797,226.9532 C19.1864797,227.0882 19.2094797,227.2272 19.2344797,227.3572 C19.7884797,230.2072 20.7434797,232.9782 21.9414797,235.5332 C23.9094797,234.1062 26.2114797,233.1452 28.5014797,232.8232 C32.2194797,232.3042 35.7414797,233.1812 38.1634797,235.2332 C39.0254797,235.9652 39.1314797,237.2572 38.4004797,238.1192 C37.6704797,238.9812 36.3784797,239.0882 35.5164797,238.3572 C33.9814797,237.0582 31.6394797,236.5172 29.0704797,236.8782 C24.8154797,237.4742 20.3034797,241.2492 20.6334797,245.7162 C20.8274797,248.3692 22.7534797,251.0892 25.6614797,252.8152 C29.8864797,255.3222 35.6974797,255.7562 41.6034797,254.0072 C46.4574797,252.5702 50.8404797,249.9942 55.5164797,246.9682 C56.1544797,246.1082 56.8714797,245.2442 57.6084797,244.3612 C59.1314797,242.5372 61.0264797,240.2682 61.0514797,239.0262 C61.2154797,230.8692 59.7094797,215.4002 58.7114797,205.1652 C58.4914797,202.9022 58.2954797,200.8972 58.1484797,199.2792 C58.0474797,198.1542 58.8764797,197.1582 60.0014797,197.0562 C61.1364797,196.9502 62.1234797,197.7832 62.2264797,198.9092 C62.3724797,200.5182 62.5674797,202.5162 62.7864797,204.7682 C63.7934797,215.1002 65.3144797,230.7122 65.1454797,239.1082 C65.0924797,241.7872 62.9834797,244.3132 60.7504797,246.9862 C59.2784797,248.7482 57.4474797,250.9402 57.3514797,252.1702 C57.1554797,254.6932 57.5334797,256.3202 58.5754797,257.4432 C60.3364797,259.3422 64.4084797,260.2652 71.0184797,260.2652 C71.0924797,260.2652 71.1644797,260.2652 71.2374797,260.2652 C77.6644797,260.2452 85.0084797,258.1832 85.6674797,254.8852 C86.6754797,249.8462 86.6264797,234.0862 86.5874797,221.4242 C86.5704797,215.7182 86.5534797,210.3302 86.6294797,206.4282 C86.6514797,205.2962 87.5824797,204.3972 88.7174797,204.4212 C89.8474797,204.4432 90.7454797,205.3772 90.7234797,206.5082 C90.7164797,206.8912 90.7104797,207.3002 90.7044797,207.7122 C95.1354797,207.8902 100.04248,207.9492 104.77248,207.8842 C104.76648,207.4092 104.75848,206.9462 104.75048,206.5082 C104.72848,205.3772 105.62648,204.4432 106.75648,204.4212 C107.89748,204.3982 108.82248,205.2972 108.84448,206.4282 C108.92048,210.3282 108.90348,215.7132 108.88648,221.4152 C108.84748,234.0812 108.79848,249.8442 109.80848,254.8852 C110.46748,258.1832 117.80948,260.2452 124.23648,260.2652 C130.92648,260.2432 135.11948,259.3622 136.89848,257.4432 C137.94248,256.3202 138.31948,254.6932 138.12348,252.1702 C138.02648,250.9412 136.19548,248.7492 134.72548,246.9872 C132.49148,244.3142 130.38148,241.7872 130.32848,239.1072 C130.28648,237.0152 130.34948,234.4722 130.48348,231.6742 C125.83248,230.3972 121.83948,227.2712 120.18248,223.2742 C118.16148,218.4022 119.76648,212.5282 124.14748,209.0162 C126.23648,207.3622 129.38948,206.0962 132.59848,205.6882 C132.62748,205.3822 132.65848,205.0652 132.68748,204.7682 C132.90648,202.5162 133.10148,200.5182 133.24748,198.9092 C133.34848,197.7832 134.33048,196.9532 135.47248,197.0562 C136.59748,197.1582 137.42648,198.1542 137.32548,199.2792 C137.17848,200.8972 136.98348,202.9022 136.76248,205.1652 C135.76448,215.4002 134.25848,230.8692 134.42248,239.0252 C134.44748,240.2682 136.34248,242.5382 137.86748,244.3622 C138.60348,245.2442 139.32048,246.1082 139.95748,246.9682 C144.63148,249.9942 149.01348,252.5692 153.87048,254.0072 C159.77848,255.7562 165.58948,255.3212 169.81248,252.8152 C172.72048,251.0892 174.64748,248.3692 174.84048,245.7162 C175.17048,241.2492 170.65848,237.4742 166.40348,236.8782 C163.84548,236.5182 161.49448,237.0582 159.95948,238.3572 C159.09548,239.0882 157.80348,238.9812 157.07548,238.1192 C156.34448,237.2572 156.45048,235.9652 157.31248,235.2332 C159.73448,233.1812 163.25448,232.3042 166.97248,232.8232 C169.25648,233.1442 171.55148,234.1012 173.51448,235.5222 C174.90648,232.5612 175.97548,229.3292 176.46148,226.0352 C177.39848,219.6902 176.13448,214.2562 172.70248,209.8832 C171.42648,208.2562 169.18148,207.1782 166.98148,207.1362 C165.98948,207.1062 164.25648,207.2962 163.06948,208.6972 C162.52348,209.3442 161.63148,209.5882 160.83048,209.3042 C160.03048,209.0242 159.48448,208.2772 159.46148,207.4302 C159.42748,206.2042 159.33948,204.9872 159.26848,203.7682 C152.82248,201.6422 143.27148,192.3852 143.66048,180.5542 C139.13048,180.2132 126.47848,179.3692 123.38548,170.7942 C120.81048,163.6552 128.26248,154.4312 141.35148,149.3492 C140.39148,148.0342 139.39248,146.7602 138.36048,145.5192 C125.71248,155.2742 94.8844797,174.8342 57.4774797,145.8272" id="Fill-663" fill="#FCFCFC"></path>
            <path d="M90.7044797,207.7122 C90.6524797,211.4442 90.6654797,216.2942 90.6814797,221.4112 C90.7094797,230.4922 90.7384797,240.3752 90.4254797,247.5412 C92.7184797,247.5252 95.1924797,247.5102 97.6754797,247.4972 C100.53148,247.4822 102.96548,247.4712 105.04548,247.4652 C104.73548,240.3032 104.76448,230.4552 104.79248,221.4022 C104.80748,216.3702 104.82148,211.5902 104.77248,207.8842 C100.04248,207.9492 95.1354797,207.8902 90.7044797,207.7122" id="Fill-664" fill="#D3D0B8"></path>
            <path d="M54.9214797,149.4292 C48.7474797,158.5082 43.9624797,168.5162 40.7504797,178.9812 C58.9554797,183.0232 77.6154797,160.4282 54.9214797,149.4292" id="Fill-665" fill="#E28B3D"></path>
            <path d="M38.4814797,217.1172 C43.4864797,217.8552 48.4344797,214.0772 50.0594797,209.2802 C51.7024797,204.5022 50.4934797,199.1002 47.9824797,194.7192 C46.1784797,191.5782 42.9844797,187.1892 39.3304797,184.0852 C37.3804797,191.7342 36.2434797,199.5752 36.0164797,207.4322 C35.9914797,208.2782 35.4474797,209.0222 34.6484797,209.3042 C33.8544797,209.5842 32.9624797,209.3462 32.4114797,208.7012 C31.2644797,207.3562 29.5844797,207.1352 28.6084797,207.1352 C28.5654797,207.1352 28.5254797,207.1352 28.4844797,207.1362 C26.2884797,207.1782 24.0384797,208.2582 22.7534797,209.8872 C18.3024797,215.5652 18.3114797,222.2262 19.1624797,226.9532 C21.1344797,227.7742 23.2264797,228.2682 25.4124797,228.2982 C31.7584797,228.3552 38.2544797,223.4632 38.4814797,217.1172" id="Fill-666" fill="#514D4E"></path>
            <path d="M123.38548,170.7942 C126.47848,179.3692 139.13048,180.2132 143.66048,180.5542 C143.27148,192.3852 152.82248,201.6422 159.26848,203.7682 C158.87148,196.8272 157.93248,189.9872 156.39748,183.3982 C153.34548,170.2872 148.29148,158.8592 141.35148,149.3492 C128.26248,154.4312 120.81048,163.6552 123.38548,170.7942" id="Fill-667" fill="#514D4E"></path>
            <path d="M100.94048,91.0561999 C104.05248,91.4841999 108.80748,92.6181999 106.43448,97.6391999 C104.50648,101.7152 100.79248,103.9032 97.1294797,103.6662 C94.2074797,103.4762 88.3124797,99.4261999 88.7414797,94.8011999 C89.1104797,90.8391999 95.7264797,90.3371999 100.94048,91.0561999 Z M114.75148,119.0242 C116.91548,118.7992 117.62948,117.6232 117.86448,116.9432 C118.15148,116.1002 117.96448,115.3152 117.64148,115.0052 C116.82348,114.2232 116.79548,112.9282 117.57848,112.1112 C118.35948,111.2922 119.65548,111.2652 120.47248,112.0492 C122.02548,113.5362 122.52248,115.9792 121.73648,118.2712 C120.81448,120.9612 118.36248,122.7652 115.17648,123.0962 C108.22048,123.8222 101.68448,120.7092 98.3984797,117.3962 C95.4394797,120.3802 89.8424797,123.2012 83.6724797,123.2022 C82.9944797,123.2022 82.3094797,123.1682 81.6194797,123.0962 C78.4334797,122.7652 75.9814797,120.9602 75.0594797,118.2702 C74.2734797,115.9792 74.7704797,113.5362 76.3234797,112.0492 C77.1424797,111.2672 78.4374797,111.2942 79.2174797,112.1112 C80.0004797,112.9282 79.9724797,114.2232 79.1554797,115.0052 C78.8314797,115.3152 78.6434797,116.1002 78.9334797,116.9432 C79.1654797,117.6232 79.8794797,118.7992 82.0434797,119.0242 C89.4814797,119.7912 95.6344797,115.2092 96.5164797,113.1622 C96.8374797,112.4122 97.5784797,111.9252 98.3954797,111.9252 C99.2124797,111.9252 99.9564797,112.4112 100.28048,113.1622 C101.16148,115.2092 107.33448,119.7872 114.75148,119.0242 Z M131.49148,66.2631999 C138.22448,66.2631999 143.68248,72.2661999 143.68248,79.6711999 C143.68248,87.0761999 138.22448,90.3941999 131.49148,90.3941999 C124.75748,90.3941999 119.29948,87.0761999 119.29948,79.6711999 C119.29948,72.2661999 124.75748,66.2631999 131.49148,66.2631999 Z M85.6984797,84.4601999 C69.0914797,113.3062 46.3614797,120.7522 27.5474797,120.4642 C35.3494797,130.4912 46.6414797,137.5592 56.9834797,142.3472 C57.0364797,142.3722 57.0814797,142.4082 57.1324797,142.4382 C89.1964797,152.2952 108.58048,151.3612 138.48448,142.4212 C138.61348,142.3162 138.75348,142.2242 138.90848,142.1512 C151.40448,136.3042 165.30748,127.0782 172.59948,113.2592 L170.34548,112.2602 C169.31248,111.8032 168.84548,110.5932 169.30348,109.5602 C169.76248,108.5262 170.96948,108.0572 172.00448,108.5172 L174.34648,109.5542 C175.45348,106.8902 176.32148,104.0732 176.89448,101.0902 L173.47548,100.7792 C172.35048,100.6762 171.52048,99.6811999 171.62248,98.5541999 C171.72548,97.4281999 172.70248,96.6001999 173.84748,96.7011999 L177.47548,97.0311999 C177.71548,94.5831999 177.76448,92.0331999 177.59748,89.3781999 L174.60148,90.0031999 C174.45948,90.0331999 174.31948,90.0471999 174.18148,90.0471999 C173.23148,90.0471999 172.38148,89.3841999 172.17848,88.4171999 C171.94848,87.3111999 172.65848,86.2271999 173.76448,85.9951999 L177.15648,85.2871999 C176.38848,80.5751999 174.67648,74.9451999 172.27748,69.1191999 C139.69348,69.7241999 115.57348,56.4661999 112.53548,12.9541999 C107.69348,11.8671999 102.73848,11.2861999 97.6764797,11.2861999 C94.3444797,11.2861999 91.0594797,11.5491999 87.8194797,12.0221999 C94.8784797,31.1681999 97.3554797,64.1911999 85.6984797,84.4601999 L85.6984797,84.4601999 Z" id="Fill-668" fill="#FCFCFC"></path>
            <path d="M57.1324797,142.4382 C57.6124797,142.7122 57.9714797,143.1632 58.1064797,143.7042 C58.2584797,144.3032 58.1314797,144.9392 57.7614797,145.4322 C57.6634797,145.5622 57.5744797,145.6962 57.4774797,145.8272 C94.8844797,174.8342 125.71248,155.2742 138.36048,145.5192 C138.30748,145.4542 138.25848,145.3842 138.20548,145.3192 C137.79748,144.8322 137.63948,144.1832 137.77648,143.5632 C137.87748,143.1082 138.13048,142.7092 138.48448,142.4212 C108.58048,151.3612 89.1964797,152.2952 57.1324797,142.4382" id="Fill-669" fill="#C6C1A5"></path>
            <path d="M25.2614797,12.6161999 C28.8034797,9.53819989 45.8084797,14.3601999 54.9344797,21.1661999 C56.4314797,22.2811999 57.7224797,23.4481999 58.7004797,24.6431999 C50.7354797,31.2451999 42.9504797,39.8461999 35.2834797,49.7531999 C33.8804797,48.5111999 32.4914797,46.5191999 31.1904797,44.0891999 C25.6884797,33.8121999 21.7814797,15.6431999 25.2614797,12.6161999 Z M64.1044797,66.2631999 C70.8374797,66.2631999 76.2954797,72.2661999 76.2954797,79.6711999 C76.2954797,87.0761999 70.8374797,90.3941999 64.1044797,90.3941999 C57.3714797,90.3941999 51.9134797,87.0761999 51.9134797,79.6711999 C51.9134797,72.2661999 57.3714797,66.2631999 64.1044797,66.2631999 Z M21.9984797,100.7792 L18.5854797,101.0902 C19.1584797,104.0722 20.0254797,106.8892 21.1314797,109.5522 L23.4694797,108.5172 C24.5094797,108.0572 25.7124797,108.5262 26.1704797,109.5602 C26.6284797,110.5932 26.1614797,111.8032 25.1284797,112.2602 L22.8764797,113.2582 C24.2244797,115.8152 25.7964797,118.2142 27.5474797,120.4642 C46.3614797,120.7522 69.0914797,113.3062 85.6984797,84.4601999 C97.3554797,64.1911999 94.8784797,31.1681999 87.8194797,12.0221999 C79.5004797,13.2361999 71.5034797,15.9761999 63.9564797,20.2621999 C63.0874797,20.7541999 61.9944797,20.5501999 61.3644797,19.7821999 C51.3814797,7.63819989 36.1834797,3.75319989 26.1814797,4.11719989 C20.8704797,4.31119989 17.5564797,5.66819989 16.7234797,6.84719989 C14.3284797,10.2401999 13.3174797,38.4281999 28.8914797,54.2291999 C29.5334797,54.8801999 29.6644797,55.8771999 29.2154797,56.6731999 C23.6834797,66.4671999 19.6264797,77.2241999 18.3164797,85.2871999 L21.7094797,85.9951999 C22.8154797,86.2271999 23.5254797,87.3111999 23.2954797,88.4181999 C23.0924797,89.3841999 22.2424797,90.0471999 21.2924797,90.0471999 C21.1554797,90.0471999 21.0144797,90.0331999 20.8724797,90.0031999 L17.8784797,89.3781999 C17.7134797,92.0331999 17.7624797,94.5831999 18.0024797,97.0301999 L21.6264797,96.7011999 C22.7664797,96.6071999 23.7484797,97.4281999 23.8514797,98.5541999 C23.9534797,99.6811999 23.1234797,100.6762 21.9984797,100.7792 L21.9984797,100.7792 Z" id="Fill-670" fill="#514D4E"></path>
            <path d="M142.59748,21.1661999 C151.72348,14.3601999 168.72948,9.53819989 172.27048,12.6161999 C175.75048,15.6431999 171.84348,33.8121999 166.34148,44.0891999 C165.04048,46.5191999 163.65148,48.5111999 162.24848,49.7531999 C154.58148,39.8461999 146.79648,31.2451999 138.83148,24.6431999 C139.80948,23.4481999 141.10148,22.2811999 142.59748,21.1661999 Z M172.27748,69.1191999 C170.57648,64.9871999 168.53748,60.7611999 166.23748,56.6991999 C165.78648,55.9021999 165.91848,54.9031999 166.56248,54.2521999 C182.15948,38.4531999 181.15048,10.2451999 178.75048,6.84719989 C177.91548,5.66619989 174.59548,4.30819989 169.27348,4.11719989 C159.30148,3.74919989 144.05648,7.65219989 134.08148,19.8181999 C133.45048,20.5911999 132.35448,20.7931999 131.48648,20.3001999 C125.43548,16.8591999 119.09348,14.4281999 112.53548,12.9541999 C115.57348,56.4661999 139.69348,69.7241999 172.27748,69.1191999 L172.27748,69.1191999 Z" id="Fill-671" fill="#E28B3D"></path>
            <path d="M162.24848,49.7531999 C163.65148,48.5111999 165.04048,46.5191999 166.34148,44.0891999 C163.95648,36.5301999 157.80948,24.3121999 142.59748,21.1661999 C141.10148,22.2811999 139.80948,23.4481999 138.83148,24.6431999 C146.79648,31.2451999 154.58148,39.8461999 162.24848,49.7531999" id="Fill-672" fill="#C15F5F"></path>
            <path d="M166.34148,44.0891999 C171.84348,33.8121999 175.75048,15.6431999 172.27048,12.6161999 C168.72948,9.53819989 151.72348,14.3601999 142.59748,21.1661999 C157.80948,24.3121999 163.95648,36.5301999 166.34148,44.0891999" id="Fill-673" fill="#FCA9A9"></path>
            <path d="M31.1904797,44.0891999 C32.4914797,46.5191999 33.8804797,48.5111999 35.2834797,49.7531999 C42.9504797,39.8461999 50.7354797,31.2451999 58.7004797,24.6431999 C57.7224797,23.4481999 56.4314797,22.2811999 54.9344797,21.1661999 C39.7234797,24.3121999 33.5754797,36.5301999 31.1904797,44.0891999" id="Fill-674" fill="#C15F5F"></path>
            <path d="M54.9344797,21.1661999 C45.8084797,14.3601999 28.8034797,9.53819989 25.2614797,12.6161999 C21.7814797,15.6431999 25.6884797,33.8121999 31.1904797,44.0891999 C33.5754797,36.5301999 39.7234797,24.3121999 54.9344797,21.1661999" id="Fill-675" fill="#FCA9A9"></path>
            <path d="M124.77348,78.8201999 C126.39248,79.9951999 128.59648,79.7201999 130.58748,76.9781999 C132.57848,74.2361999 132.87948,71.0611999 131.26048,69.8851999 C129.64248,68.7101999 126.71648,69.9801999 124.72548,72.7221999 C122.73448,75.4641999 123.15448,77.6451999 124.77348,78.8201999" id="Fill-676" fill="#F7F5E2"></path>
            <path d="M56.5764797,79.7021999 C58.1944797,80.8781999 60.3984797,80.6021999 62.3894797,77.8601999 C64.3804797,75.1191999 64.6824797,71.9431999 63.0634797,70.7681999 C61.4444797,69.5921999 58.5184797,70.8621999 56.5274797,73.6041999 C54.5374797,76.3461999 54.9574797,78.5271999 56.5764797,79.7021999" id="Fill-677" fill="#F7F5E2"></path>
            <path d="M120.18248,223.2742 C121.83948,227.2712 125.83248,230.3972 130.48348,231.6742 C130.87148,223.5762 131.85048,213.3572 132.59848,205.6882 C129.38948,206.0962 126.23648,207.3622 124.14748,209.0162 C119.76648,212.5282 118.16148,218.4022 120.18248,223.2742" id="Fill-678" fill="#E28B3D"></path>
            <path d="M164.33048,171.2522 C165.01648,169.5692 165.65448,168.0632 166.18348,166.8202 C168.75148,160.8562 173.10348,156.1052 177.54048,154.4212 C178.68348,153.9862 179.80148,153.7712 180.89148,153.7712 C182.08148,153.7712 183.23448,154.0292 184.34248,154.5502 C186.47248,155.5482 187.80548,157.1252 188.41848,159.3732 C189.77348,164.3302 187.25948,171.1712 184.35148,175.4322 C183.31848,176.9402 182.35248,178.4282 181.43548,179.8682 C181.35348,179.9982 181.26448,180.1332 181.18348,180.2622 C175.96048,188.4182 171.88348,196.1092 168.98248,203.2612 C168.34748,203.1412 167.70548,203.0552 167.05948,203.0422 C165.75848,203.0142 164.51748,203.2222 163.40048,203.6392 C162.99248,196.4262 161.98148,189.3212 160.38448,182.4692 C160.34448,182.2952 160.29348,182.1292 160.25248,181.9552 C161.61148,178.1362 162.95548,174.6562 164.06748,171.8972 C164.15648,171.6752 164.24248,171.4682 164.33048,171.2522 Z M21.6264797,96.7011999 L18.0024797,97.0301999 C17.7624797,94.5831999 17.7134797,92.0331999 17.8784797,89.3781999 L20.8724797,90.0031999 C21.0144797,90.0331999 21.1554797,90.0471999 21.2924797,90.0471999 C22.2424797,90.0471999 23.0924797,89.3841999 23.2954797,88.4181999 C23.5254797,87.3111999 22.8154797,86.2271999 21.7094797,85.9951999 L18.3164797,85.2871999 C19.6264797,77.2241999 23.6834797,66.4671999 29.2154797,56.6731999 C29.6644797,55.8771999 29.5334797,54.8801999 28.8914797,54.2291999 C13.3174797,38.4281999 14.3284797,10.2401999 16.7234797,6.84719989 C17.5564797,5.66819989 20.8704797,4.31119989 26.1814797,4.11719989 C36.1834797,3.75319989 51.3814797,7.63819989 61.3644797,19.7821999 C61.9944797,20.5501999 63.0874797,20.7541999 63.9564797,20.2621999 C71.5034797,15.9761999 79.5004797,13.2361999 87.8194797,12.0221999 C91.0594797,11.5491999 94.3444797,11.2861999 97.6764797,11.2861999 C102.73848,11.2861999 107.69348,11.8671999 112.53548,12.9541999 C119.09348,14.4281999 125.43548,16.8591999 131.48648,20.3001999 C132.35448,20.7931999 133.45048,20.5911999 134.08148,19.8181999 C144.05648,7.65219989 159.30148,3.74919989 169.27348,4.11719989 C174.59548,4.30819989 177.91548,5.66619989 178.75048,6.84719989 C181.15048,10.2451999 182.15948,38.4531999 166.56248,54.2521999 C165.91848,54.9031999 165.78648,55.9021999 166.23748,56.6991999 C168.53748,60.7611999 170.57648,64.9871999 172.27748,69.1191999 C174.67648,74.9451999 176.38848,80.5751999 177.15648,85.2871999 L173.76448,85.9951999 C172.65848,86.2271999 171.94848,87.3111999 172.17848,88.4171999 C172.38148,89.3841999 173.23148,90.0471999 174.18148,90.0471999 C174.31948,90.0471999 174.45948,90.0331999 174.60148,90.0031999 L177.59748,89.3781999 C177.76448,92.0331999 177.71548,94.5831999 177.47548,97.0311999 L173.84748,96.7011999 C172.70248,96.6001999 171.72548,97.4281999 171.62248,98.5541999 C171.52048,99.6811999 172.35048,100.6762 173.47548,100.7792 L176.89448,101.0902 C176.32148,104.0732 175.45348,106.8902 174.34648,109.5542 L172.00448,108.5172 C170.96948,108.0572 169.76248,108.5262 169.30348,109.5602 C168.84548,110.5932 169.31248,111.8032 170.34548,112.2602 L172.59948,113.2592 C165.30748,127.0782 151.40448,136.3042 138.90848,142.1512 C138.75348,142.2242 138.61348,142.3162 138.48448,142.4212 C138.13048,142.7092 137.87748,143.1082 137.77648,143.5632 C137.63948,144.1832 137.79748,144.8322 138.20548,145.3192 C138.25848,145.3842 138.30748,145.4542 138.36048,145.5192 C139.39248,146.7602 140.39148,148.0342 141.35148,149.3492 C148.29148,158.8592 153.34548,170.2872 156.39748,183.3982 C157.93248,189.9872 158.87148,196.8272 159.26848,203.7682 C159.33948,204.9872 159.42748,206.2042 159.46148,207.4302 C159.48448,208.2772 160.03048,209.0242 160.83048,209.3042 C161.63148,209.5882 162.52348,209.3442 163.06948,208.6972 C164.25648,207.2962 165.98948,207.1062 166.98148,207.1362 C169.18148,207.1782 171.42648,208.2562 172.70248,209.8832 C176.13448,214.2562 177.39848,219.6902 176.46148,226.0352 C175.97548,229.3292 174.90648,232.5612 173.51448,235.5222 C171.55148,234.1012 169.25648,233.1442 166.97248,232.8232 C163.25448,232.3042 159.73448,233.1812 157.31248,235.2332 C156.45048,235.9652 156.34448,237.2572 157.07548,238.1192 C157.80348,238.9812 159.09548,239.0882 159.95948,238.3572 C161.49448,237.0582 163.84548,236.5182 166.40348,236.8782 C170.65848,237.4742 175.17048,241.2492 174.84048,245.7162 C174.64748,248.3692 172.72048,251.0892 169.81248,252.8152 C165.58948,255.3212 159.77848,255.7562 153.87048,254.0072 C149.01348,252.5692 144.63148,249.9942 139.95748,246.9682 C139.32048,246.1082 138.60348,245.2442 137.86748,244.3622 C136.34248,242.5382 134.44748,240.2682 134.42248,239.0252 C134.25848,230.8692 135.76448,215.4002 136.76248,205.1652 C136.98348,202.9022 137.17848,200.8972 137.32548,199.2792 C137.42648,198.1542 136.59748,197.1582 135.47248,197.0562 C134.33048,196.9532 133.34848,197.7832 133.24748,198.9092 C133.10148,200.5182 132.90648,202.5162 132.68748,204.7682 C132.65848,205.0652 132.62748,205.3822 132.59848,205.6882 C131.85048,213.3572 130.87148,223.5762 130.48348,231.6742 C130.34948,234.4722 130.28648,237.0152 130.32848,239.1072 C130.38148,241.7872 132.49148,244.3142 134.72548,246.9872 C136.19548,248.7492 138.02648,250.9412 138.12348,252.1702 C138.31948,254.6932 137.94248,256.3202 136.89848,257.4432 C135.11948,259.3622 130.92648,260.2432 124.23648,260.2652 C117.80948,260.2452 110.46748,258.1832 109.80848,254.8852 C108.79848,249.8442 108.84748,234.0812 108.88648,221.4152 C108.90348,215.7132 108.92048,210.3282 108.84448,206.4282 C108.82248,205.2972 107.89748,204.3982 106.75648,204.4212 C105.62648,204.4432 104.72848,205.3772 104.75048,206.5082 C104.75848,206.9462 104.76648,207.4092 104.77248,207.8842 C104.82148,211.5902 104.80748,216.3702 104.79248,221.4022 C104.76448,230.4552 104.73548,240.3032 105.04548,247.4652 C102.96548,247.4712 100.53148,247.4822 97.6754797,247.4972 C95.1924797,247.5102 92.7184797,247.5252 90.4254797,247.5412 C90.7384797,240.3752 90.7094797,230.4922 90.6814797,221.4112 C90.6654797,216.2942 90.6524797,211.4442 90.7044797,207.7122 C90.7104797,207.3002 90.7164797,206.8912 90.7234797,206.5082 C90.7454797,205.3772 89.8474797,204.4432 88.7174797,204.4212 C87.5824797,204.3972 86.6514797,205.2962 86.6294797,206.4282 C86.5534797,210.3302 86.5704797,215.7182 86.5874797,221.4242 C86.6264797,234.0862 86.6754797,249.8462 85.6674797,254.8852 C85.0084797,258.1832 77.6644797,260.2452 71.2374797,260.2652 C71.1644797,260.2652 71.0924797,260.2652 71.0184797,260.2652 C64.4084797,260.2652 60.3364797,259.3422 58.5754797,257.4432 C57.5334797,256.3202 57.1554797,254.6932 57.3514797,252.1702 C57.4474797,250.9402 59.2784797,248.7482 60.7504797,246.9862 C62.9834797,244.3132 65.0924797,241.7872 65.1454797,239.1082 C65.3144797,230.7122 63.7934797,215.1002 62.7864797,204.7682 C62.5674797,202.5162 62.3724797,200.5182 62.2264797,198.9092 C62.1234797,197.7832 61.1364797,196.9502 60.0014797,197.0562 C58.8764797,197.1582 58.0474797,198.1542 58.1484797,199.2792 C58.2954797,200.8972 58.4914797,202.9022 58.7114797,205.1652 C59.7094797,215.4002 61.2154797,230.8692 61.0514797,239.0262 C61.0264797,240.2682 59.1314797,242.5372 57.6084797,244.3612 C56.8714797,245.2442 56.1544797,246.1082 55.5164797,246.9682 C50.8404797,249.9942 46.4574797,252.5702 41.6034797,254.0072 C35.6974797,255.7562 29.8864797,255.3222 25.6614797,252.8152 C22.7534797,251.0892 20.8274797,248.3692 20.6334797,245.7162 C20.3034797,241.2492 24.8154797,237.4742 29.0704797,236.8782 C31.6394797,236.5172 33.9814797,237.0582 35.5164797,238.3572 C36.3784797,239.0882 37.6704797,238.9812 38.4004797,238.1192 C39.1314797,237.2572 39.0254797,235.9652 38.1634797,235.2332 C35.7414797,233.1812 32.2194797,232.3042 28.5014797,232.8232 C26.2114797,233.1452 23.9094797,234.1062 21.9414797,235.5332 C20.7434797,232.9782 19.7884797,230.2072 19.2344797,227.3572 C19.2094797,227.2272 19.1864797,227.0882 19.1624797,226.9532 C18.3114797,222.2262 18.3024797,215.5652 22.7534797,209.8872 C24.0384797,208.2582 26.2884797,207.1782 28.4844797,207.1362 C28.5254797,207.1352 28.5654797,207.1352 28.6084797,207.1352 C29.5844797,207.1352 31.2644797,207.3562 32.4114797,208.7012 C32.9624797,209.3462 33.8544797,209.5842 34.6484797,209.3042 C35.4474797,209.0222 35.9914797,208.2782 36.0164797,207.4322 C36.2434797,199.5752 37.3804797,191.7342 39.3304797,184.0852 C39.7674797,182.3742 40.2314797,180.6702 40.7504797,178.9812 C43.9624797,168.5162 48.7474797,158.5082 54.9214797,149.4292 C55.7494797,148.2122 56.5994797,147.0102 57.4774797,145.8272 C57.5744797,145.6962 57.6634797,145.5622 57.7614797,145.4322 C58.1314797,144.9392 58.2584797,144.3032 58.1064797,143.7042 C57.9714797,143.1632 57.6124797,142.7122 57.1324797,142.4382 C57.0814797,142.4082 57.0364797,142.3722 56.9834797,142.3472 C46.6414797,137.5592 35.3494797,130.4912 27.5474797,120.4642 C25.7964797,118.2142 24.2244797,115.8152 22.8764797,113.2582 L25.1284797,112.2602 C26.1614797,111.8032 26.6284797,110.5932 26.1704797,109.5602 C25.7124797,108.5262 24.5094797,108.0572 23.4694797,108.5172 L21.1314797,109.5522 C20.0254797,106.8892 19.1584797,104.0722 18.5854797,101.0902 L21.9984797,100.7792 C23.1234797,100.6762 23.9534797,99.6811999 23.8514797,98.5541999 C23.7484797,97.4281999 22.7664797,96.6071999 21.6264797,96.7011999 Z M0.0084797363,100.7252 C0.104479736,101.7872 0.998479736,102.5872 2.04347974,102.5872 C2.10647974,102.5872 2.16847974,102.5842 2.23347974,102.5782 L14.5314797,101.4592 C15.1634797,104.7932 16.1474797,108.0342 17.4734797,111.1732 L7.31747974,115.6712 C6.28447974,116.1292 5.81747974,117.3382 6.27547974,118.3722 C6.61447974,119.1362 7.36247974,119.5912 8.14847974,119.5912 C8.42547974,119.5912 8.70647974,119.5342 8.97647974,119.4152 L19.2234797,114.8762 C25.4754797,126.8292 36.9124797,137.1152 53.0114797,144.9902 C40.7484797,162.1482 33.4054797,182.7602 32.0904797,203.6472 C30.9674797,203.2252 29.7424797,203.0002 28.4064797,203.0422 C24.9814797,203.1072 21.5824797,204.7592 19.5344797,207.3572 C15.1534797,212.9462 13.6594797,220.1332 15.2154797,228.1392 C15.9384797,231.8562 17.2474797,235.3792 18.8714797,238.5492 C17.2824797,240.6702 16.3434797,243.2302 16.5484797,246.0162 C16.8454797,250.0432 19.4704797,253.9002 23.5704797,256.3352 C26.7194797,258.2042 30.5254797,259.1542 34.5924797,259.1542 C37.2424797,259.1542 40.0044797,258.7512 42.7664797,257.9342 C46.4354797,256.8482 49.8634797,255.1662 53.2134797,253.2092 C53.1864797,255.3932 53.5664797,258.0662 55.5734797,260.2292 C58.2224797,263.0832 62.9894797,264.3592 71.0174797,264.3592 C71.0944797,264.3592 71.1724797,264.3592 71.2504797,264.3592 C77.4554797,264.3412 88.3204797,262.4932 89.6834797,255.6872 C89.8884797,254.6612 90.0524797,253.2842 90.1844797,251.6372 C95.4154797,251.6002 100.81648,251.5732 105.28548,251.5672 C105.41848,253.2452 105.58448,254.6492 105.79248,255.6882 C107.15348,262.4932 118.01848,264.3412 124.22348,264.3592 C124.30148,264.3592 124.37848,264.3592 124.45648,264.3592 C132.48348,264.3592 137.25148,263.0822 139.90048,260.2292 C141.90748,258.0672 142.28748,255.3932 142.26148,253.2102 C145.61048,255.1662 149.03748,256.8472 152.70748,257.9342 C155.47048,258.7512 158.23148,259.1542 160.88148,259.1542 C164.94848,259.1542 168.75448,258.2042 171.90348,256.3352 C176.00348,253.9002 178.62848,250.0432 178.92548,246.0162 C179.13048,243.2272 178.18948,240.6642 176.59748,238.5422 C178.46548,234.8992 179.89248,230.8232 180.51148,226.6332 C181.60448,219.2392 180.01848,212.5722 175.92348,207.3562 C175.08848,206.2912 174.01748,205.3972 172.81648,204.6942 C175.61648,197.8152 179.56648,190.3792 184.63648,182.4622 C185.60448,180.9332 186.63148,179.3482 187.72948,177.7442 C187.72948,177.7442 187.73148,177.7432 187.73148,177.7422 C191.26848,172.5622 194.07548,164.5402 192.36948,158.2952 C191.44548,154.9142 189.27048,152.3382 186.08148,150.8432 C182.96548,149.3812 179.50948,149.2932 176.08748,150.5932 C170.65048,152.6562 165.41448,158.2542 162.42048,165.2072 C161.81148,166.6342 161.07048,168.3842 160.27048,170.3652 C159.69848,171.7862 159.06248,173.4082 158.39748,175.1522 C154.88048,163.5542 149.73548,153.3392 142.99248,144.7282 C158.80848,136.8872 170.02548,126.6802 176.21048,114.8582 L186.49748,119.4152 C186.76748,119.5342 187.04848,119.5912 187.32548,119.5912 C188.11148,119.5912 188.85948,119.1362 189.19848,118.3722 C189.65648,117.3382 189.18948,116.1292 188.15648,115.6712 L177.95948,111.1542 C179.28548,108.0182 180.30448,104.7892 180.93748,101.4582 L193.24148,102.5782 C193.30548,102.5842 193.36748,102.5872 193.43048,102.5872 C194.47548,102.5872 195.36948,101.7872 195.46548,100.7252 C195.56748,99.5991999 194.73748,98.6041999 193.61248,98.5001999 L181.52748,97.4001999 C181.81948,94.5611999 181.87248,91.6631999 181.66548,88.7101999 C181.66348,88.6541999 181.65048,88.5891999 181.64748,88.5321999 L191.55048,86.4651999 C192.65648,86.2331999 193.36648,85.1491999 193.13648,84.0431999 C192.90348,82.9361999 191.83748,82.2241999 190.71248,82.4571999 L181.15348,84.4531999 C179.79848,76.2631999 175.95948,65.8801999 170.53948,56.0081999 C186.12248,38.9471999 185.85648,9.81119989 182.09448,4.48419989 C180.25048,1.87419989 175.63148,0.248199892 169.42248,0.0251998917 C158.82348,-0.352800108 142.94248,3.62119989 132.02848,15.9191999 C121.30148,10.1271999 109.75348,7.19219989 97.6764797,7.19219989 C85.6284797,7.19219989 74.1114797,10.1141999 63.4154797,15.8821999 C52.4914797,3.60319989 36.6094797,-0.366800108 26.0314797,0.0261998917 C19.8324797,0.252199892 15.2224797,1.87819989 13.3794797,4.48519989 C9.62247974,9.80519989 9.35347974,38.9221999 24.9144797,55.9841999 C19.4984797,65.8681999 15.6644797,76.2681999 14.3184797,84.4521999 L4.76247974,82.4571999 C3.63947974,82.2251999 2.57247974,82.9371999 2.33947974,84.0421999 C2.10947974,85.1491999 2.81947974,86.2331999 3.92547974,86.4651999 L13.8284797,88.5321999 C13.8244797,88.5841999 13.8134797,88.6431999 13.8114797,88.6931999 C13.6024797,91.6521999 13.6504797,94.5561999 13.9414797,97.4001999 L1.86147974,98.5001999 C0.736479736,98.6041999 -0.0935202637,99.5991999 0.0084797363,100.7252 L0.0084797363,100.7252 Z" id="Fill-679" fill="#231F20"></path>
            <path d="M88.7414797,94.8011999 C88.3124797,99.4261999 94.2074797,103.4762 97.1294797,103.6662 C100.79248,103.9032 104.50648,101.7152 106.43448,97.6391999 C108.80748,92.6181999 104.05248,91.4841999 100.94048,91.0561999 C95.7264797,90.3371999 89.1104797,90.8391999 88.7414797,94.8011999" id="Fill-680" fill="#231F20"></path>
            <path d="M100.28048,113.1622 C99.9564797,112.4112 99.2124797,111.9252 98.3954797,111.9252 C97.5784797,111.9252 96.8374797,112.4122 96.5164797,113.1622 C95.6344797,115.2092 89.4814797,119.7912 82.0434797,119.0242 C79.8794797,118.7992 79.1654797,117.6232 78.9334797,116.9432 C78.6434797,116.1002 78.8314797,115.3152 79.1554797,115.0052 C79.9724797,114.2232 80.0004797,112.9282 79.2174797,112.1112 C78.4374797,111.2942 77.1424797,111.2672 76.3234797,112.0492 C74.7704797,113.5362 74.2734797,115.9792 75.0594797,118.2702 C75.9814797,120.9602 78.4334797,122.7652 81.6194797,123.0962 C82.3094797,123.1682 82.9944797,123.2022 83.6724797,123.2022 C89.8424797,123.2012 95.4394797,120.3802 98.3984797,117.3962 C101.68448,120.7092 108.22048,123.8222 115.17648,123.0962 C118.36248,122.7652 120.81448,120.9612 121.73648,118.2712 C122.52248,115.9792 122.02548,113.5362 120.47248,112.0492 C119.65548,111.2652 118.35948,111.2922 117.57848,112.1112 C116.79548,112.9282 116.82348,114.2232 117.64148,115.0052 C117.96448,115.3152 118.15148,116.1002 117.86448,116.9432 C117.62948,117.6232 116.91548,118.7992 114.75148,119.0242 C107.33448,119.7872 101.16148,115.2092 100.28048,113.1622" id="Fill-681" fill="#231F20"></path>
            <path d="M124.72548,72.7221999 C126.71648,69.9801999 129.64248,68.7101999 131.26048,69.8851999 C132.87948,71.0611999 132.57848,74.2361999 130.58748,76.9781999 C128.59648,79.7201999 126.39248,79.9951999 124.77348,78.8201999 C123.15448,77.6451999 122.73448,75.4641999 124.72548,72.7221999 Z M131.49148,90.3941999 C138.22448,90.3941999 143.68248,87.0761999 143.68248,79.6711999 C143.68248,72.2661999 138.22448,66.2631999 131.49148,66.2631999 C124.75748,66.2631999 119.29948,72.2661999 119.29948,79.6711999 C119.29948,87.0761999 124.75748,90.3941999 131.49148,90.3941999 L131.49148,90.3941999 Z" id="Fill-682" fill="#231F20"></path>
            <path d="M63.0634797,70.7681999 C64.6824797,71.9431999 64.3804797,75.1191999 62.3894797,77.8601999 C60.3984797,80.6021999 58.1944797,80.8781999 56.5764797,79.7021999 C54.9574797,78.5271999 54.5374797,76.3461999 56.5274797,73.6041999 C58.5184797,70.8621999 61.4444797,69.5921999 63.0634797,70.7681999 Z M51.9134797,79.6711999 C51.9134797,87.0761999 57.3714797,90.3941999 64.1044797,90.3941999 C70.8374797,90.3941999 76.2954797,87.0761999 76.2954797,79.6711999 C76.2954797,72.2661999 70.8374797,66.2631999 64.1044797,66.2631999 C57.3714797,66.2631999 51.9134797,72.2661999 51.9134797,79.6711999 L51.9134797,79.6711999 Z" id="Fill-683" fill="#231F20"></path>
        </g>
    </g>
</svg>