<?xml version="1.0" encoding="UTF-8"?>
<svg width="179px" height="359px" viewBox="0 0 179 359" version="1.1" xmlns="http://www.w3.org/2000/svg" xmlns:xlink="http://www.w3.org/1999/xlink">
    <title>Page 1</title>
    <g id="Page-1" stroke="none" stroke-width="1" fill="none" fill-rule="evenodd">
        <polygon id="Fill-1" fill="#FFFFFF" points="-1238.94 1402 1961 1402 1961 -197.96 -1238.94 -197.96"></polygon>
        <path d="M169.59,239.669 C168.94,242.625 164.57,261.884 157.77,279.859 C158.19,282.254 158.45,284.591 158.5,286.836 C160.1,286.079 161.92,285.705 163.84,285.708 C168.28,272.833 170.66,259.504 171.25,251.742 C171.59,247.189 171.67,242.131 170.07,237.817 C169.88,238.392 169.73,239.023 169.59,239.669" id="Fill-499" fill="#FFFFFF"></path>
        <path d="M8,313.139 C11.26,318.859 16.4,323.185 21.48,327.314 C23.47,326.732 27.79,325.739 32.34,326.392 C33.46,326.552 34.24,327.589 34.08,328.708 C33.92,329.828 32.88,330.604 31.77,330.445 C26.93,329.756 22.27,331.341 21.81,331.504 C18.84,332.75 16.28,333.966 15.05,336.174 C14.08,337.94 14.34,339.806 14.74,341.062 C15.5,343.5 17.45,345.785 19.7,346.884 C23.33,348.662 33.34,347.878 40.45,345.494 C40.99,343.279 42.19,341.123 43.29,339.154 C43.99,337.896 44.72,336.595 45.34,335.255 C46.87,331.936 45.71,308.195 42.63,291.267 C42.43,290.154 43.17,289.088 44.28,288.886 C45.39,288.682 46.46,289.421 46.66,290.534 C49.32,305.164 51.45,331.789 49.06,336.972 C48.37,338.457 47.6,339.828 46.86,341.154 C43.58,347.013 42.71,349.199 47.98,352.34 C51.68,354.549 56.34,354.088 59.99,353.439 C62.6,352.975 65.34,352.324 67.62,350.718 C71.98,347.65 73.42,340.788 73.32,335.844 C73.17,328.208 73.25,321.976 73.32,315.949 C73.4,309.946 73.47,303.738 73.32,296.156 C73.3,295.026 74.2,294.091 75.33,294.07 C76.46,294.062 77.39,294.945 77.42,296.077 C77.49,300.042 77.51,303.625 77.5,307.002 C83.07,308.389 91.6,309.324 102.33,306.86 C102.32,303.525 102.33,299.987 102.41,296.077 C102.43,294.948 103.39,294.103 104.5,294.07 C105.63,294.091 106.53,295.026 106.5,296.156 C106.36,303.732 106.43,309.935 106.51,315.935 C106.58,321.966 106.66,328.202 106.51,335.844 C106.41,340.788 107.85,347.65 112.21,350.718 C114.49,352.324 117.23,352.975 119.84,353.439 C123.48,354.088 128.15,354.549 131.85,352.34 C137.12,349.199 136.25,347.013 132.97,341.153 C132.23,339.828 131.46,338.457 130.77,336.972 C128.38,331.789 130.51,305.164 133.17,290.534 C133.37,289.421 134.45,288.681 135.55,288.886 C136.66,289.088 137.4,290.154 137.2,291.267 C134.12,308.195 132.96,331.936 134.49,335.255 C135.11,336.595 135.84,337.896 136.54,339.153 C137.64,341.123 138.84,343.28 139.38,345.494 C146.49,347.878 156.5,348.659 160.13,346.884 C162.38,345.785 164.33,343.5 165.09,341.063 C165.49,339.808 165.75,337.94 164.77,336.174 C163.55,333.957 160.98,332.742 157.99,331.491 C157.98,331.484 157.97,331.473 157.95,331.467 C157.09,331.175 152.66,329.794 148.1,330.445 C146.99,330.606 145.95,329.829 145.79,328.708 C145.63,327.589 146.4,326.552 147.53,326.392 C152.06,325.741 156.36,326.724 158.36,327.307 C163.44,323.18 168.57,318.856 171.83,313.139 C174.83,307.9 176.24,300.102 172.65,294.49 C170.94,291.817 167.67,289.974 164.32,289.792 C162.77,289.708 159.85,289.935 157.88,292.399 C157.3,293.109 156.33,293.358 155.49,293.007 C154.65,292.657 154.14,291.794 154.25,290.888 C156.21,273.424 141.57,247.112 130.54,233.926 C128.19,240.878 116.94,260.486 92.22,260.052 C70.71,259.675 58.82,248.065 51.62,232.038 C39.3,246.308 23.7,274.152 25.58,290.888 C25.69,291.794 25.18,292.657 24.34,293.007 C23.5,293.355 22.53,293.109 21.95,292.399 C20.18,290.188 17.65,289.779 16.03,289.779 C15.84,289.779 15.67,289.784 15.51,289.793 C12.15,289.974 8.89,291.818 7.18,294.49 C3.59,300.102 5,307.9 8,313.139" id="Fill-500" fill="#FFFFFF"></path>
        <path d="M77.5,307.002 C77.49,310.137 77.45,313.094 77.42,316 C77.34,321.995 77.27,328.193 77.41,335.764 C77.44,337.419 77.33,339.205 77.04,341.01 C80.49,342.098 92.13,345.148 102.78,340.986 C102.5,339.189 102.39,337.412 102.42,335.764 C102.56,328.188 102.49,321.984 102.41,315.984 C102.38,313.04 102.34,310.043 102.33,306.86 C91.6,309.324 83.07,308.389 77.5,307.002" id="Fill-501" fill="#CEC8CA"></path>
        <path d="M80.26,204.532 C90.8,204.153 126.54,200.432 111.17,224.548 C102.22,238.603 86.41,239.43 73.98,231.137 C58.5,220.816 64.2,205.11 80.26,204.532 Z M121.72,144.78 C122.46,137.728 127.64,128.898 134.3,130.546 C136.92,131.195 138.92,133.662 139.54,136.721 C139.71,137.542 139.77,138.407 139.72,139.292 C139.39,145.472 134.86,148.184 130.8,151.023 C128.8,152.425 126.35,153.077 124.47,152.063 C122.31,150.898 121.41,147.771 121.72,144.78 Z M127.06,62.881 C131.76,52.033 142.86,30.741 161.36,19.694 C161.36,19.694 170.05,52.175 156.49,79.849 C155.07,82.754 153.4,85.607 151.45,88.363 C151.45,88.363 138.47,72.649 124.41,69.595 C124.41,69.595 125.28,66.978 127.06,62.881 Z M114.81,239.045 C114.48,239.256 114.1,239.357 113.73,239.357 C113.05,239.357 112.38,239.016 111.99,238.395 C111.39,237.435 111.69,236.173 112.65,235.574 C119.02,231.59 122.59,225.637 123.88,216.838 C124.04,215.719 125.07,214.944 126.2,215.109 C127.32,215.273 128.09,216.312 127.93,217.431 C126.47,227.371 122.18,234.441 114.81,239.045 Z M29.13,88.363 C27.18,85.607 25.51,82.754 24.09,79.849 C10.52,52.175 19.22,19.694 19.22,19.694 C37.71,30.741 48.82,52.033 53.52,62.881 C55.29,66.978 56.16,69.595 56.16,69.595 C42.1,72.649 29.13,88.363 29.13,88.363 Z M129.32,230.74 C129.4,230.549 129.49,230.363 129.63,230.199 C147.4,209.316 150.18,171.007 152.87,133.958 C153.3,128.04 153.72,122.19 154.21,116.493 C154.81,109.378 154.5,102.966 153.28,97.435 C153.07,96.518 153.52,95.58 154.36,95.161 C159.73,92.492 164.44,84.882 167.64,73.735 C174.18,50.919 172.75,20.138 164.66,5.016 C142.61,15.876 116.95,53.834 115,67.148 C114.85,68.251 113.84,69.023 112.72,68.884 C111.85,68.773 110.99,68.671 110.13,68.574 C95.64,66.945 82.68,66.827 71.59,68.224 C70.11,68.41 68.65,68.637 67.2,68.884 C66.65,68.98 66.09,68.845 65.65,68.521 C65.2,68.196 64.91,67.706 64.83,67.16 C62.9,53.848 37.24,15.884 15.17,5.016 C6.82,20.627 5.61,52.912 12.76,75.681 C16.02,86.057 20.67,93.047 25.86,95.385 C25.92,95.402 25.97,95.419 26,95.431 C27.03,95.811 27.58,96.928 27.25,97.97 C26.18,101.322 25.57,104.976 25.39,109.008 C31.38,105.028 38.57,102.699 46.32,102.699 C67.22,102.699 83.76,115.816 83.76,136.589 C83.76,157.38 64.47,178.759 43.58,178.759 C39.13,178.759 35,177.955 31.23,176.486 C34.83,197.472 40.91,215.946 52.23,228.6 C52.31,228.697 52.36,228.815 52.42,228.923 C52.46,228.958 52.5,228.969 52.54,229.016 C59.89,237.54 93.67,274.968 129.32,230.74 L129.32,230.74 Z" id="Fill-502" fill="#FFFFFF"></path>
        <path d="M92.22,260.052 C116.94,260.486 128.19,240.878 130.54,233.926 C130.24,233.565 129.94,233.209 129.64,232.868 C129.12,232.267 129.02,231.442 129.32,230.74 C93.67,274.968 59.89,237.54 52.54,229.016 C52.5,228.969 52.46,228.958 52.42,228.923 C52.88,229.675 52.84,230.64 52.23,231.32 C52.03,231.552 51.82,231.798 51.62,232.038 C58.82,248.065 70.71,259.675 92.22,260.052" id="Fill-503" fill="#CEC8CA"></path>
        <path d="M36.88,139.14 C36.87,138.024 37.01,136.926 37.28,135.876 C38.31,131.971 41.2,128.735 44.84,127.763 C54.08,125.293 60.68,136.164 61.28,145.042 C61.54,148.809 60.12,152.816 57.09,154.415 C54.45,155.806 51.12,155.123 48.45,153.465 C43.05,150.107 36.98,146.938 36.88,139.14 Z M83.76,136.589 C83.76,115.816 67.22,102.699 46.32,102.699 C38.57,102.699 31.38,105.028 25.39,109.008 C25.3,111.124 25.31,113.338 25.46,115.68 L25.55,117.229 C26.78,137.421 28.04,157.935 31.23,176.486 C35,177.955 39.13,178.759 43.58,178.759 C64.47,178.759 83.76,157.38 83.76,136.589 L83.76,136.589 Z" id="Fill-504" fill="#3F3A3B"></path>
        <path d="M53.52,62.881 C48.82,52.033 37.71,30.741 19.22,19.694 C19.22,19.694 10.52,52.175 24.09,79.849 C26.55,73.493 33.65,62.931 53.52,62.881" id="Fill-505" fill="#D67C8E"></path>
        <path d="M24.09,79.849 C25.51,82.754 27.18,85.607 29.13,88.363 C29.13,88.363 42.1,72.649 56.16,69.595 C56.16,69.595 55.29,66.978 53.52,62.881 C33.65,62.931 26.55,73.493 24.09,79.849" id="Fill-506" fill="#B55D72"></path>
        <path d="M156.49,79.849 C170.05,52.175 161.36,19.694 161.36,19.694 C142.86,30.741 131.76,52.033 127.06,62.881 C146.93,62.931 154.02,73.493 156.49,79.849" id="Fill-507" fill="#D67C8E"></path>
        <path d="M151.45,88.363 C153.4,85.607 155.07,82.754 156.49,79.849 C154.02,73.493 146.93,62.931 127.06,62.881 C125.28,66.978 124.41,69.595 124.41,69.595 C138.47,72.649 151.45,88.363 151.45,88.363" id="Fill-508" fill="#B55D72"></path>
        <path d="M81.54,217.071 C83.08,216.282 84.61,215.303 85.56,213.939 C90.28,207.174 79.91,207.776 75.3,209.59 C70.06,211.654 66.35,217.045 72.61,218.733 C75.42,219.49 78.72,218.515 81.54,217.071" id="Fill-509" fill="#FFFFFF"></path>
        <path d="M40.11,139.292 C40.06,138.407 40.13,137.542 40.29,136.721 C40.91,133.662 42.91,131.195 45.53,130.546 C52.19,128.898 57.37,137.728 58.11,144.78 C58.42,147.771 57.52,150.898 55.36,152.063 C53.48,153.077 51.03,152.425 49.03,151.023 C44.97,148.184 40.44,145.472 40.11,139.292 Z M57.09,154.415 C60.12,152.816 61.54,148.809 61.28,145.042 C60.68,136.164 54.08,125.293 44.84,127.763 C41.2,128.735 38.31,131.971 37.28,135.876 C37.01,136.926 36.87,138.024 36.88,139.14 C36.98,146.938 43.05,150.107 48.45,153.465 C51.12,155.123 54.45,155.806 57.09,154.415 L57.09,154.415 Z" id="Fill-510" fill="#FFFFFF"></path>
        <path d="M128.58,143.125 C130,142.229 130.95,140.41 131.53,138.601 C131.85,137.613 132.08,136.555 131.94,135.585 C131.21,130.772 127.27,135.48 126.11,138.208 C124.8,141.312 125.4,145.123 128.58,143.125" id="Fill-511" fill="#FFFFFF"></path>
        <path d="M49.38,135.555 C48.77,130.956 45.08,135.514 43.99,138.14 C42.74,141.128 43.24,144.769 46.19,142.817 C47.51,141.941 48.41,140.187 48.96,138.448 C49.27,137.499 49.5,136.482 49.38,135.555" id="Fill-512" fill="#FFFFFF"></path>
        <path d="M75.3,209.59 C79.91,207.776 90.28,207.174 85.56,213.939 C84.61,215.303 83.08,216.282 81.54,217.071 C78.72,218.515 75.42,219.49 72.61,218.733 C66.35,217.045 70.06,211.654 75.3,209.59 Z M73.98,231.137 C86.41,239.43 102.22,238.603 111.17,224.548 C126.54,200.432 90.8,204.153 80.26,204.532 C64.2,205.11 58.5,220.816 73.98,231.137 L73.98,231.137 Z" id="Fill-513" fill="#231F20"></path>
        <path d="M126.11,138.208 C127.27,135.48 131.21,130.772 131.94,135.585 C132.08,136.555 131.85,137.613 131.53,138.601 C130.95,140.41 130,142.229 128.58,143.125 C125.4,145.123 124.8,141.312 126.11,138.208 Z M124.47,152.063 C126.35,153.077 128.8,152.425 130.8,151.023 C134.86,148.184 139.39,145.472 139.72,139.292 C139.77,138.407 139.71,137.542 139.54,136.721 C138.92,133.662 136.92,131.195 134.3,130.546 C127.64,128.898 122.46,137.728 121.72,144.78 C121.41,147.771 122.31,150.898 124.47,152.063 L124.47,152.063 Z" id="Fill-514" fill="#231F20"></path>
        <path d="M46.19,142.817 C43.24,144.769 42.74,141.128 43.99,138.14 C45.08,135.514 48.77,130.956 49.38,135.555 C49.5,136.482 49.27,137.499 48.96,138.448 C48.41,140.187 47.51,141.941 46.19,142.817 Z M55.36,152.063 C57.52,150.898 58.42,147.771 58.11,144.78 C57.37,137.728 52.19,128.898 45.53,130.546 C42.91,131.195 40.91,133.662 40.29,136.721 C40.13,137.542 40.06,138.407 40.11,139.292 C40.44,145.472 44.97,148.184 49.03,151.023 C51.03,152.425 53.48,153.077 55.36,152.063 L55.36,152.063 Z" id="Fill-515" fill="#231F20"></path>
        <path d="M126.2,215.109 C125.07,214.944 124.04,215.719 123.88,216.838 C122.59,225.637 119.02,231.59 112.65,235.574 C111.69,236.173 111.39,237.435 111.99,238.395 C112.38,239.016 113.05,239.357 113.73,239.357 C114.1,239.357 114.48,239.256 114.81,239.045 C122.18,234.441 126.47,227.371 127.93,217.431 C128.09,216.312 127.32,215.273 126.2,215.109" id="Fill-516" fill="#231F20"></path>
        <path d="M171.25,251.742 C170.66,259.504 168.28,272.833 163.84,285.708 C161.92,285.705 160.1,286.079 158.5,286.836 C158.45,284.591 158.19,282.254 157.77,279.859 C164.57,261.884 168.94,242.625 169.59,239.669 C169.73,239.023 169.88,238.392 170.07,237.817 C171.67,242.131 171.59,247.189 171.25,251.742 Z M15.51,289.793 C15.67,289.784 15.84,289.779 16.03,289.779 C17.65,289.779 20.18,290.188 21.95,292.399 C22.53,293.109 23.5,293.355 24.34,293.007 C25.18,292.657 25.69,291.794 25.58,290.888 C23.7,274.152 39.3,246.308 51.62,232.038 C51.82,231.798 52.03,231.552 52.23,231.32 C52.84,230.64 52.88,229.675 52.42,228.923 C52.36,228.815 52.31,228.697 52.23,228.6 C40.91,215.946 34.83,197.472 31.23,176.486 C28.04,157.935 26.78,137.421 25.55,117.229 L25.46,115.68 C25.31,113.338 25.3,111.124 25.39,109.008 C25.57,104.976 26.18,101.322 27.25,97.97 C27.58,96.928 27.03,95.811 26,95.431 C25.97,95.419 25.92,95.402 25.86,95.385 C20.67,93.047 16.02,86.057 12.76,75.681 C5.61,52.912 6.82,20.627 15.17,5.016 C37.24,15.884 62.9,53.848 64.83,67.16 C64.91,67.706 65.2,68.196 65.65,68.521 C66.09,68.845 66.65,68.98 67.2,68.884 C68.65,68.637 70.11,68.41 71.59,68.224 C82.68,66.827 95.64,66.945 110.13,68.574 C110.99,68.671 111.85,68.773 112.72,68.884 C113.84,69.023 114.85,68.251 115,67.148 C116.95,53.834 142.61,15.876 164.66,5.016 C172.75,20.138 174.18,50.919 167.64,73.735 C164.44,84.882 159.73,92.492 154.36,95.161 C153.52,95.58 153.07,96.518 153.28,97.435 C154.5,102.966 154.81,109.378 154.21,116.493 C153.72,122.19 153.3,128.04 152.87,133.958 C150.18,171.007 147.4,209.316 129.63,230.199 C129.49,230.363 129.4,230.549 129.32,230.74 C129.02,231.442 129.12,232.267 129.64,232.868 C129.94,233.209 130.24,233.565 130.54,233.926 C141.57,247.112 156.21,273.424 154.25,290.888 C154.14,291.794 154.65,292.657 155.49,293.007 C156.33,293.358 157.3,293.109 157.88,292.399 C159.85,289.935 162.77,289.708 164.32,289.792 C167.67,289.974 170.94,291.817 172.65,294.49 C176.24,300.102 174.83,307.9 171.83,313.139 C168.57,318.856 163.44,323.18 158.36,327.307 C156.36,326.724 152.06,325.741 147.53,326.392 C146.4,326.552 145.63,327.589 145.79,328.708 C145.95,329.829 146.99,330.606 148.1,330.445 C152.66,329.794 157.09,331.175 157.95,331.467 C157.97,331.473 157.98,331.484 157.99,331.491 C160.98,332.742 163.55,333.957 164.77,336.174 C165.75,337.94 165.49,339.808 165.09,341.063 C164.33,343.5 162.38,345.785 160.13,346.884 C156.5,348.659 146.49,347.878 139.38,345.494 C138.84,343.28 137.64,341.123 136.54,339.153 C135.84,337.896 135.11,336.595 134.49,335.255 C132.96,331.936 134.12,308.195 137.2,291.267 C137.4,290.154 136.66,289.088 135.55,288.886 C134.45,288.681 133.37,289.421 133.17,290.534 C130.51,305.164 128.38,331.789 130.77,336.972 C131.46,338.457 132.23,339.828 132.97,341.153 C136.25,347.013 137.12,349.199 131.85,352.34 C128.15,354.549 123.48,354.088 119.84,353.439 C117.23,352.975 114.49,352.324 112.21,350.718 C107.85,347.65 106.41,340.788 106.51,335.844 C106.66,328.202 106.58,321.966 106.51,315.935 C106.43,309.935 106.36,303.732 106.5,296.156 C106.53,295.026 105.63,294.091 104.5,294.07 C103.39,294.103 102.43,294.948 102.41,296.077 C102.33,299.987 102.32,303.525 102.33,306.86 C102.34,310.043 102.38,313.04 102.41,315.984 C102.49,321.984 102.56,328.188 102.42,335.764 C102.39,337.412 102.5,339.189 102.78,340.986 C92.13,345.148 80.49,342.098 77.04,341.01 C77.33,339.205 77.44,337.419 77.41,335.764 C77.27,328.193 77.34,321.995 77.42,316 C77.45,313.094 77.49,310.137 77.5,307.002 C77.51,303.625 77.49,300.042 77.42,296.077 C77.39,294.945 76.46,294.062 75.33,294.07 C74.2,294.091 73.3,295.026 73.32,296.156 C73.47,303.738 73.4,309.946 73.32,315.949 C73.25,321.976 73.17,328.208 73.32,335.844 C73.42,340.788 71.98,347.65 67.62,350.718 C65.34,352.324 62.6,352.975 59.99,353.439 C56.34,354.088 51.68,354.549 47.98,352.34 C42.71,349.199 43.58,347.013 46.86,341.154 C47.6,339.828 48.37,338.457 49.06,336.972 C51.45,331.789 49.32,305.164 46.66,290.534 C46.46,289.421 45.39,288.682 44.28,288.886 C43.17,289.088 42.43,290.154 42.63,291.267 C45.71,308.195 46.87,331.936 45.34,335.255 C44.72,336.595 43.99,337.896 43.29,339.154 C42.19,341.123 40.99,343.279 40.45,345.494 C33.34,347.878 23.33,348.662 19.7,346.884 C17.45,345.785 15.5,343.5 14.74,341.062 C14.34,339.806 14.08,337.94 15.05,336.174 C16.28,333.966 18.84,332.75 21.81,331.504 C22.27,331.341 26.93,329.756 31.77,330.445 C32.88,330.604 33.92,329.828 34.08,328.708 C34.24,327.589 33.46,326.552 32.34,326.392 C27.79,325.739 23.47,326.732 21.48,327.314 C16.4,323.185 11.26,318.859 8,313.139 C5,307.9 3.59,300.102 7.18,294.49 C8.89,291.818 12.15,289.974 15.51,289.793 Z M17.19,329.099 C15.03,330.21 12.83,331.751 11.47,334.19 C10.16,336.559 9.93,339.435 10.83,342.291 C11.94,345.8 14.65,348.97 17.9,350.563 C19.87,351.526 22.78,351.945 26.05,351.945 C30.67,351.945 36.01,351.106 40.45,349.782 C41.05,351.863 42.64,353.922 45.88,355.855 C48.71,357.541 51.78,358.075 54.71,358.075 C56.83,358.075 58.88,357.795 60.71,357.47 C63.64,356.949 67.03,356.138 69.98,354.066 C73.02,351.924 74.97,348.598 76.11,345.014 C80.29,346.322 92.23,349.269 103.72,345.011 C104.86,348.596 106.81,351.923 109.85,354.066 C112.8,356.138 116.19,356.949 119.12,357.47 C120.95,357.795 122.99,358.075 125.12,358.075 C128.05,358.075 131.13,357.541 133.95,355.855 C137.19,353.921 138.78,351.86 139.38,349.778 C146.97,352.041 157.18,352.883 161.93,350.563 C165.18,348.97 167.89,345.801 169,342.292 C169.9,339.436 169.67,336.559 168.35,334.191 C167,331.751 164.8,330.21 162.64,329.099 C167.31,325.238 172.16,320.83 175.39,315.169 C179.79,307.469 180.06,298.486 176.1,292.285 C174.28,289.432 171.33,287.3 167.99,286.305 C172.66,272.543 174.81,258.95 175.33,252.048 C175.8,245.751 175.79,238.531 172.09,232.708 C171.8,232.243 171.33,231.916 170.79,231.802 C170.24,231.688 169.68,231.798 169.22,232.105 C166.69,233.802 166,236.922 165.59,238.787 C163.74,247.197 160.35,260.118 156.03,272.561 C151.55,257.339 141.84,241.129 133.86,231.505 C151.5,209.376 154.27,171.199 156.95,134.255 C157.38,128.353 157.8,122.52 158.28,116.839 C158.87,109.937 158.63,103.624 157.58,98.046 C164.93,93.451 169.23,83.037 171.58,74.863 C177.83,53.056 177.95,18.73 167.25,1.299 C166.72,0.431 165.63,0.087 164.69,0.492 C142.7,10.016 115.49,47.511 111.34,64.592 C111.09,64.563 110.84,64.534 110.58,64.505 C95.78,62.84 82.48,62.724 71.08,64.161 C70.21,64.271 69.34,64.395 68.47,64.528 C64.28,47.411 37.12,10.009 15.14,0.492 C14.2,0.085 13.11,0.431 12.58,1.299 C1.71,19.001 1.88,54.685 8.85,76.907 C12.26,87.766 17.08,95.164 22.84,98.439 C21.45,103.603 20.96,109.346 21.37,115.93 L21.46,117.479 C24.09,160.425 26.8,204.804 47.99,229.967 C36.65,243.363 21.96,268.552 21.35,286.848 C19.55,285.988 17.48,285.584 15.28,285.705 C10.59,285.958 6.16,288.48 3.73,292.285 C-0.23,298.486 0.04,307.469 4.44,315.169 C7.67,320.83 12.52,325.238 17.19,329.099 L17.19,329.099 Z" id="Fill-517" fill="#231F20"></path>
    </g>
</svg>