<svg xmlns="http://www.w3.org/2000/svg" xmlns:xlink= "http://www.w3.org/1999/xlink" width="20" height="21" viewBox="0 0 20 21"><g fill="none" fill-rule="evenodd"><path fill="#EB4134" d="M2.93 3.43A9.969 9.969 0 0 1 10 .5c2.76 0 5.26 1.12 7.07 2.93l-2.828 2.828A5.981 5.981 0 0 0 10 4.5a5.981 5.981 0 0 0-4.242 1.758L2.93 3.43z"/><path fill="#34AA51" d="M14.242 14.742l2.828 2.828A9.969 9.969 0 0 1 10 20.5c-2.76 0-5.26-1.12-7.07-2.93l2.828-2.828A5.981 5.981 0 0 0 10 16.5a5.981 5.981 0 0 0 4.242-1.758z"/><path fill="#FBBE04" d="M2.93 3.43l2.828 2.828A5.981 5.981 0 0 0 4 10.5c0 1.656.672 3.156 1.758 4.242L2.93 17.57A9.969 9.969 0 0 1 0 10.5c0-2.76 1.12-5.26 2.93-7.07z"/><path fill="#4186F7" d="M10 8.5h9.8a10.057 10.057 0 0 1 0 4 9.992 9.992 0 0 1-2.73 5.07l-2.828-2.828a6 6 0 0 0 1.416-2.242H10v-4z"/></g></svg>